<svg width="140" height="142" viewBox="0 0 140 142" fill="none" xmlns="http://www.w3.org/2000/svg">
<path d="M74.5295 4.72763C74.5295 2.11662 72.4439 0 69.8714 0C67.2989 0 65.2134 2.11662 65.2134 4.72763V59.5006L36.9338 30.7991C35.1147 28.9528 32.1653 28.9528 30.3463 30.7991C28.5271 32.6452 28.5271 35.6386 30.3463 37.4849L58.6259 66.1866H4.65809C2.08551 66.1866 0 68.3034 0 70.9143C0 73.5252 2.08551 75.642 4.65809 75.642H58.6259L30.3463 104.344C28.5271 106.19 28.5271 109.183 30.3463 111.029C32.1655 112.876 35.1147 112.876 36.9338 111.029L65.2134 82.3279V137.101C65.2134 139.712 67.2989 141.829 69.8714 141.829C72.4439 141.829 74.5295 139.712 74.5295 137.101V82.3275L102.809 111.029C104.628 112.876 107.578 112.876 109.397 111.029C111.216 109.183 111.216 106.19 109.397 104.343L81.1172 75.642H135.085C137.657 75.642 139.743 73.5252 139.743 70.9143C139.743 68.3034 137.657 66.1866 135.085 66.1866H81.1172L109.397 37.4851C111.216 35.6388 111.216 32.6454 109.397 30.7991C107.578 28.9528 104.628 28.9528 102.809 30.7991L74.5295 59.5008V4.72763Z" fill="url(#paint0_linear_212_309)"/>
<defs>
<linearGradient id="paint0_linear_212_309" x1="69.8714" y1="0" x2="69.8714" y2="251.829" gradientUnits="userSpaceOnUse">
<stop stop-color="#67D1FF"/>
<stop offset="1" stop-color="#1AE02E"/>
</linearGradient>
</defs>
</svg>
