<svg width="1700" height="508" viewBox="0 0 1700 508" fill="none" xmlns="http://www.w3.org/2000/svg">
<path opacity="0.9" d="M179.851 341.984C179.851 276.475 129.985 255.942 80.853 255.942H18.2767V429.004H82.8085C130.474 429.004 179.851 402.849 179.851 341.984ZM136.341 341.984C136.341 380.606 108.719 392.827 78.8975 392.827H59.0979V291.63H79.8752C108.719 291.63 136.341 303.119 136.341 341.984ZM370.858 429.004V255.942H329.059V321.451H261.594V255.942H219.795V429.004H261.594V356.651H329.059V429.004H370.858ZM569.262 255.942H520.375L483.464 319.985L446.554 255.942H395.955L460.976 355.673V429.004H502.775V355.673L569.262 255.942ZM741.089 363.739V255.942H699.29V360.317C699.29 378.894 690.49 396.005 666.78 396.005C643.314 396.005 634.27 378.894 634.27 360.317V255.942H592.715V363.739C592.715 405.294 621.07 433.649 666.535 433.649C711.757 433.649 741.089 405.294 741.089 363.739ZM910.065 291.63V255.942H770.491V291.63H819.378V429.004H861.177V291.63H910.065ZM1092.43 429.004V255.942H1050.63V321.451H983.166V255.942H941.367V429.004H983.166V356.651H1050.63V429.004H1092.43ZM1182.3 429.004V255.942H1140.26V429.004H1182.3ZM1435.38 395.272V362.028H1411.43V255.942H1362.3L1291.9 360.806V395.272H1373.3V429.004H1411.67V395.272H1435.38ZM1373.54 362.028H1331.74L1372.81 297.985H1373.54V362.028ZM1517.39 407.494C1517.39 394.05 1506.15 383.539 1492.95 383.539C1479.26 383.539 1468.01 394.539 1468.01 407.738C1468.01 421.182 1479.5 431.449 1492.95 431.449C1506.15 431.449 1517.39 420.938 1517.39 407.494ZM1688.2 341.984C1688.2 293.097 1669.63 251.298 1620.74 251.298C1571.61 251.298 1552.79 293.097 1552.79 341.984C1552.79 391.116 1571.61 433.649 1620.74 433.649C1669.63 433.649 1688.2 391.116 1688.2 341.984ZM1646.16 341.984C1646.16 364.228 1642.25 398.45 1620.74 398.45C1598.98 398.45 1594.83 364.228 1594.83 341.984C1594.83 320.229 1598.98 286.008 1620.74 286.008C1642.25 286.008 1646.16 320.229 1646.16 341.984Z" fill="url(#paint0_linear_30_24812)" fill-opacity="0.3"/>
<path opacity="0.9" d="M18.2767 123.94V122.62H16.9567V123.94H18.2767ZM18.2767 297.002H16.9567V298.322H18.2767V297.002ZM59.0979 260.825H57.7779V262.145H59.0979V260.825ZM59.0979 159.628V158.308H57.7779V159.628H59.0979ZM181.171 209.982C181.171 176.842 168.531 154.914 149.545 141.321C130.629 127.779 105.57 122.62 80.853 122.62V125.26C105.268 125.26 129.708 130.366 148.008 143.468C166.238 156.519 178.531 177.612 178.531 209.982H181.171ZM80.853 122.62H18.2767V125.26H80.853V122.62ZM16.9567 123.94V297.002H19.5967V123.94H16.9567ZM18.2767 298.322H82.8085V295.682H18.2767V298.322ZM82.8085 298.322C106.86 298.322 131.426 291.727 150.011 277.361C168.641 262.961 181.171 240.819 181.171 209.982H178.531C178.531 240.011 166.372 261.378 148.397 275.272C130.378 289.2 106.422 295.682 82.8085 295.682V298.322ZM135.021 209.982C135.021 228.939 128.265 241.228 118.016 248.826C107.699 256.475 93.6609 259.505 78.8975 259.505V262.145C93.9555 262.145 108.639 259.065 119.588 250.947C130.605 242.779 137.661 229.647 137.661 209.982H135.021ZM78.8975 259.505H59.0979V262.145H78.8975V259.505ZM60.418 260.825V159.628H57.7779V260.825H60.418ZM59.0979 160.948H79.8752V158.308H59.0979V160.948ZM79.8752 160.948C94.1565 160.948 107.95 163.798 118.142 171.294C128.264 178.738 135.021 190.901 135.021 209.982H137.661C137.661 190.197 130.607 177.184 119.706 169.167C108.877 161.202 94.4377 158.308 79.8752 158.308V160.948ZM370.858 297.002V298.322H372.178V297.002H370.858ZM370.858 123.94H372.178V122.62H370.858V123.94ZM329.059 123.94V122.62H327.739V123.94H329.059ZM329.059 189.449V190.769H330.379V189.449H329.059ZM261.594 189.449H260.274V190.769H261.594V189.449ZM261.594 123.94H262.914V122.62H261.594V123.94ZM219.795 123.94V122.62H218.475V123.94H219.795ZM219.795 297.002H218.475V298.322H219.795V297.002ZM261.594 297.002V298.322H262.914V297.002H261.594ZM261.594 224.648V223.328H260.274V224.648H261.594ZM329.059 224.648H330.379V223.328H329.059V224.648ZM329.059 297.002H327.739V298.322H329.059V297.002ZM372.178 297.002V123.94H369.538V297.002H372.178ZM370.858 122.62H329.059V125.26H370.858V122.62ZM327.739 123.94V189.449H330.379V123.94H327.739ZM329.059 188.129H261.594V190.769H329.059V188.129ZM262.914 189.449V123.94H260.274V189.449H262.914ZM261.594 122.62H219.795V125.26H261.594V122.62ZM218.475 123.94V297.002H221.115V123.94H218.475ZM219.795 298.322H261.594V295.682H219.795V298.322ZM262.914 297.002V224.648H260.274V297.002H262.914ZM261.594 225.968H329.059V223.328H261.594V225.968ZM327.739 224.648V297.002H330.379V224.648H327.739ZM329.059 298.322H370.858V295.682H329.059V298.322ZM569.262 123.94L570.361 124.672L571.729 122.62H569.262V123.94ZM520.375 123.94V122.62H519.612L519.231 123.281L520.375 123.94ZM483.464 187.983L482.321 188.642L483.464 190.626L484.608 188.642L483.464 187.983ZM446.554 123.94L447.698 123.281L447.317 122.62H446.554V123.94ZM395.955 123.94V122.62H393.519L394.85 124.661L395.955 123.94ZM460.976 223.671H462.296V223.278L462.082 222.95L460.976 223.671ZM460.976 297.002H459.656V298.322H460.976V297.002ZM502.775 297.002V298.322H504.095V297.002H502.775ZM502.775 223.671L501.677 222.938L501.455 223.271V223.671H502.775ZM569.262 122.62H520.375V125.26H569.262V122.62ZM519.231 123.281L482.321 187.323L484.608 188.642L521.518 124.599L519.231 123.281ZM484.608 187.323L447.698 123.281L445.41 124.599L482.321 188.642L484.608 187.323ZM446.554 122.62H395.955V125.26H446.554V122.62ZM394.85 124.661L459.87 224.392L462.082 222.95L397.061 123.219L394.85 124.661ZM459.656 223.671V297.002H462.296V223.671H459.656ZM460.976 298.322H502.775V295.682H460.976V298.322ZM504.095 297.002V223.671H501.455V297.002H504.095ZM503.873 224.403L570.361 124.672L568.164 123.207L501.677 222.938L503.873 224.403ZM741.089 123.94H742.409V122.62H741.089V123.94ZM699.29 123.94V122.62H697.97V123.94H699.29ZM634.27 123.94H635.59V122.62H634.27V123.94ZM592.715 123.94V122.62H591.395V123.94H592.715ZM742.409 231.737V123.94H739.769V231.737H742.409ZM741.089 122.62H699.29V125.26H741.089V122.62ZM697.97 123.94V228.315H700.61V123.94H697.97ZM697.97 228.315C697.97 237.421 695.81 246.019 690.887 252.312C686.004 258.553 678.281 262.683 666.78 262.683V265.323C678.989 265.323 687.522 260.898 692.966 253.939C698.37 247.032 700.61 237.786 700.61 228.315H697.97ZM666.78 262.683C655.404 262.683 647.678 258.556 642.762 252.309C637.807 246.013 635.59 237.414 635.59 228.315H632.95C632.95 237.794 635.254 247.038 640.688 253.942C646.16 260.895 654.689 265.323 666.78 265.323V262.683ZM635.59 228.315V123.94H632.95V228.315H635.59ZM634.27 122.62H592.715V125.26H634.27V122.62ZM591.395 123.94V231.737H594.035V123.94H591.395ZM591.395 231.737C591.395 252.824 598.596 270.662 611.661 283.226C624.721 295.787 643.526 302.967 666.535 302.967V300.327C644.079 300.327 625.974 293.329 613.491 281.323C601.011 269.322 594.035 252.205 594.035 231.737H591.395ZM666.535 302.967C689.423 302.967 708.406 295.787 721.677 283.234C734.955 270.675 742.409 252.837 742.409 231.737H739.769C739.769 252.192 732.558 269.308 719.863 281.316C707.163 293.329 688.869 300.327 666.535 300.327V302.967ZM910.065 159.628V160.948H911.385V159.628H910.065ZM910.065 123.94H911.385V122.62H910.065V123.94ZM770.491 123.94V122.62H769.171V123.94H770.491ZM770.491 159.628H769.171V160.948H770.491V159.628ZM819.378 159.628H820.698V158.308H819.378V159.628ZM819.378 297.002H818.058V298.322H819.378V297.002ZM861.177 297.002V298.322H862.497V297.002H861.177ZM861.177 159.628V158.308H859.857V159.628H861.177ZM911.385 159.628V123.94H908.745V159.628H911.385ZM910.065 122.62H770.491V125.26H910.065V122.62ZM769.171 123.94V159.628H771.811V123.94H769.171ZM770.491 160.948H819.378V158.308H770.491V160.948ZM818.058 159.628V297.002H820.698V159.628H818.058ZM819.378 298.322H861.177V295.682H819.378V298.322ZM862.497 297.002V159.628H859.857V297.002H862.497ZM861.177 160.948H910.065V158.308H861.177V160.948ZM1092.43 297.002V298.322H1093.75V297.002H1092.43ZM1092.43 123.94H1093.75V122.62H1092.43V123.94ZM1050.63 123.94V122.62H1049.31V123.94H1050.63ZM1050.63 189.449V190.769H1051.95V189.449H1050.63ZM983.166 189.449H981.846V190.769H983.166V189.449ZM983.166 123.94H984.486V122.62H983.166V123.94ZM941.367 123.94V122.62H940.047V123.94H941.367ZM941.367 297.002H940.047V298.322H941.367V297.002ZM983.166 297.002V298.322H984.486V297.002H983.166ZM983.166 224.648V223.328H981.846V224.648H983.166ZM1050.63 224.648H1051.95V223.328H1050.63V224.648ZM1050.63 297.002H1049.31V298.322H1050.63V297.002ZM1093.75 297.002V123.94H1091.11V297.002H1093.75ZM1092.43 122.62H1050.63V125.26H1092.43V122.62ZM1049.31 123.94V189.449H1051.95V123.94H1049.31ZM1050.63 188.129H983.166V190.769H1050.63V188.129ZM984.486 189.449V123.94H981.846V189.449H984.486ZM983.166 122.62H941.367V125.26H983.166V122.62ZM940.047 123.94V297.002H942.687V123.94H940.047ZM941.367 298.322H983.166V295.682H941.367V298.322ZM984.486 297.002V224.648H981.846V297.002H984.486ZM983.166 225.968H1050.63V223.328H983.166V225.968ZM1049.31 224.648V297.002H1051.95V224.648H1049.31ZM1050.63 298.322H1092.43V295.682H1050.63V298.322ZM1182.3 297.002V298.322H1183.62V297.002H1182.3ZM1182.3 123.94H1183.62V122.62H1182.3V123.94ZM1140.26 123.94V122.62H1138.94V123.94H1140.26ZM1140.26 297.002H1138.94V298.322H1140.26V297.002ZM1183.62 297.002V123.94H1180.98V297.002H1183.62ZM1182.3 122.62H1140.26V125.26H1182.3V122.62ZM1138.94 123.94V297.002H1141.58V123.94H1138.94ZM1140.26 298.322H1182.3V295.682H1140.26V298.322ZM1435.38 263.27V264.59H1436.7V263.27H1435.38ZM1435.38 230.026H1436.7V228.706H1435.38V230.026ZM1411.43 230.026H1410.11V231.346H1411.43V230.026ZM1411.43 123.94H1412.75V122.62H1411.43V123.94ZM1362.3 123.94V122.62H1361.59L1361.2 123.204L1362.3 123.94ZM1291.9 228.804L1290.8 228.068L1290.58 228.402V228.804H1291.9ZM1291.9 263.27H1290.58V264.59H1291.9V263.27ZM1373.3 263.27H1374.62V261.95H1373.3V263.27ZM1373.3 297.002H1371.98V298.322H1373.3V297.002ZM1411.67 297.002V298.322H1412.99V297.002H1411.67ZM1411.67 263.27V261.95H1410.35V263.27H1411.67ZM1373.54 230.026V231.346H1374.86V230.026H1373.54ZM1331.74 230.026L1330.63 229.313L1329.33 231.346H1331.74V230.026ZM1372.81 165.983V164.663H1372.09L1371.7 165.271L1372.81 165.983ZM1373.54 165.983H1374.86V164.663H1373.54V165.983ZM1436.7 263.27V230.026H1434.06V263.27H1436.7ZM1435.38 228.706H1411.43V231.346H1435.38V228.706ZM1412.75 230.026V123.94H1410.11V230.026H1412.75ZM1411.43 122.62H1362.3V125.26H1411.43V122.62ZM1361.2 123.204L1290.8 228.068L1292.99 229.54L1363.39 124.675L1361.2 123.204ZM1290.58 228.804V263.27H1293.22V228.804H1290.58ZM1291.9 264.59H1373.3V261.95H1291.9V264.59ZM1371.98 263.27V297.002H1374.62V263.27H1371.98ZM1373.3 298.322H1411.67V295.682H1373.3V298.322ZM1412.99 297.002V263.27H1410.35V297.002H1412.99ZM1411.67 264.59H1435.38V261.95H1411.67V264.59ZM1373.54 228.706H1331.74V231.346H1373.54V228.706ZM1332.85 230.739L1373.92 166.696L1371.7 165.271L1330.63 229.313L1332.85 230.739ZM1372.81 167.303H1373.54V164.663H1372.81V167.303ZM1372.22 165.983V230.026H1374.86V165.983H1372.22ZM1518.71 275.492C1518.71 261.275 1506.83 250.217 1492.95 250.217V252.857C1505.46 252.857 1516.07 262.819 1516.07 275.492H1518.71ZM1492.95 250.217C1478.56 250.217 1466.69 261.773 1466.69 275.736H1469.33C1469.33 263.299 1479.95 252.857 1492.95 252.857V250.217ZM1466.69 275.736C1466.69 289.994 1478.86 300.767 1492.95 300.767V298.127C1480.14 298.127 1469.33 288.366 1469.33 275.736H1466.69ZM1492.95 300.767C1506.83 300.767 1518.71 289.708 1518.71 275.492H1516.07C1516.07 288.164 1505.46 298.127 1492.95 298.127V300.767ZM1689.52 209.982C1689.52 185.404 1684.86 162.444 1673.91 145.587C1662.91 128.652 1645.63 117.975 1620.74 117.975V120.615C1644.74 120.615 1661.19 130.838 1671.7 147.025C1682.26 163.289 1686.88 185.672 1686.88 209.982H1689.52ZM1620.74 117.975C1595.73 117.975 1578.33 128.649 1567.23 145.583C1556.19 162.44 1551.47 185.401 1551.47 209.982H1554.11C1554.11 185.675 1558.79 163.293 1569.44 147.029C1580.04 130.841 1596.62 120.615 1620.74 120.615V117.975ZM1551.47 209.982C1551.47 234.684 1556.19 257.886 1567.23 274.956C1578.32 292.101 1595.72 302.967 1620.74 302.967V300.327C1596.63 300.327 1580.05 289.926 1569.45 273.522C1558.79 257.042 1554.11 234.412 1554.11 209.982H1551.47ZM1620.74 302.967C1645.64 302.967 1662.92 292.098 1673.92 274.951C1684.86 257.882 1689.52 234.682 1689.52 209.982H1686.88C1686.88 234.415 1682.26 257.046 1671.69 273.526C1661.18 289.929 1644.73 300.327 1620.74 300.327V302.967ZM1644.84 209.982C1644.84 221.06 1643.86 235.012 1640.26 246.15C1636.64 257.358 1630.58 265.127 1620.74 265.127V267.767C1632.41 267.767 1639.06 258.426 1642.77 246.962C1646.5 235.429 1647.48 221.148 1647.48 209.982H1644.84ZM1620.74 265.127C1610.76 265.127 1604.59 257.34 1600.88 246.141C1597.19 235.005 1596.15 221.055 1596.15 209.982H1593.51C1593.51 221.153 1594.55 235.436 1598.37 246.972C1602.18 258.444 1608.96 267.767 1620.74 267.767V265.127ZM1596.15 209.982C1596.15 199.155 1597.19 185.328 1600.88 174.253C1604.59 163.115 1610.76 155.326 1620.74 155.326V152.686C1608.96 152.686 1602.18 162.007 1598.37 173.418C1594.55 184.893 1593.51 199.054 1593.51 209.982H1596.15ZM1620.74 155.326C1630.58 155.326 1636.64 163.097 1640.26 174.244C1643.86 185.321 1644.84 199.15 1644.84 209.982H1647.48C1647.48 199.059 1646.5 184.9 1642.77 173.427C1639.06 162.025 1632.41 152.686 1620.74 152.686V155.326Z" fill="url(#paint1_linear_30_24812)"/>
<path opacity="0.9" d="M18.2767 -8.06252V-9.38254H16.9567V-8.06252H18.2767ZM18.2767 165H16.9567V166.32H18.2767V165ZM59.0979 128.823H57.7779V130.143H59.0979V128.823ZM59.0979 27.6255V26.3055H57.7779V27.6255H59.0979ZM181.171 77.9799C181.171 44.84 168.531 22.9118 149.545 9.31928C130.629 -4.2228 105.57 -9.38254 80.853 -9.38254V-6.7425C105.268 -6.7425 129.708 -1.63582 148.008 11.4659C166.238 24.5172 178.531 45.6102 178.531 77.9799H181.171ZM80.853 -9.38254H18.2767V-6.7425H80.853V-9.38254ZM16.9567 -8.06252V165H19.5967V-8.06252H16.9567ZM18.2767 166.32H82.8085V163.68H18.2767V166.32ZM82.8085 166.32C106.86 166.32 131.426 159.724 150.011 145.359C168.641 130.959 181.171 108.817 181.171 77.9799H178.531C178.531 108.008 166.372 129.376 148.397 143.27C130.378 157.198 106.422 163.68 82.8085 163.68V166.32ZM135.021 77.9799C135.021 96.9365 128.265 109.226 118.016 116.824C107.699 124.473 93.6609 127.503 78.8975 127.503V130.143C93.9555 130.143 108.639 127.063 119.588 118.945C130.605 110.777 137.661 97.6445 137.661 77.9799H135.021ZM78.8975 127.503H59.0979V130.143H78.8975V127.503ZM60.418 128.823V27.6255H57.7779V128.823H60.418ZM59.0979 28.9455H79.8752V26.3055H59.0979V28.9455ZM79.8752 28.9455C94.1565 28.9455 107.95 31.7953 118.142 39.2914C128.264 46.7354 135.021 58.8989 135.021 77.9799H137.661C137.661 58.1951 130.607 45.1814 119.706 37.1646C108.877 29.2 94.4377 26.3055 79.8752 26.3055V28.9455ZM370.858 165V166.32H372.178V165H370.858ZM370.858 -8.06252H372.178V-9.38254H370.858V-8.06252ZM329.059 -8.06252V-9.38254H327.739V-8.06252H329.059ZM329.059 57.447V58.767H330.379V57.447H329.059ZM261.594 57.447H260.274V58.767H261.594V57.447ZM261.594 -8.06252H262.914V-9.38254H261.594V-8.06252ZM219.795 -8.06252V-9.38254H218.475V-8.06252H219.795ZM219.795 165H218.475V166.32H219.795V165ZM261.594 165V166.32H262.914V165H261.594ZM261.594 92.6462V91.3262H260.274V92.6462H261.594ZM329.059 92.6462H330.379V91.3262H329.059V92.6462ZM329.059 165H327.739V166.32H329.059V165ZM372.178 165V-8.06252H369.538V165H372.178ZM370.858 -9.38254H329.059V-6.7425H370.858V-9.38254ZM327.739 -8.06252V57.447H330.379V-8.06252H327.739ZM329.059 56.127H261.594V58.767H329.059V56.127ZM262.914 57.447V-8.06252H260.274V57.447H262.914ZM261.594 -9.38254H219.795V-6.7425H261.594V-9.38254ZM218.475 -8.06252V165H221.115V-8.06252H218.475ZM219.795 166.32H261.594V163.68H219.795V166.32ZM262.914 165V92.6462H260.274V165H262.914ZM261.594 93.9662H329.059V91.3262H261.594V93.9662ZM327.739 92.6462V165H330.379V92.6462H327.739ZM329.059 166.32H370.858V163.68H329.059V166.32ZM569.262 -8.06252L570.361 -7.3303L571.729 -9.38254H569.262V-8.06252ZM520.375 -8.06252V-9.38254H519.612L519.231 -8.72166L520.375 -8.06252ZM483.464 55.9804L482.321 56.6395L483.464 58.6239L484.608 56.6395L483.464 55.9804ZM446.554 -8.06252L447.698 -8.72166L447.317 -9.38254H446.554V-8.06252ZM395.955 -8.06252V-9.38254H393.519L394.85 -7.3416L395.955 -8.06252ZM460.976 91.6684H462.296V91.2761L462.082 90.9475L460.976 91.6684ZM460.976 165H459.656V166.32H460.976V165ZM502.775 165V166.32H504.095V165H502.775ZM502.775 91.6684L501.677 90.9362L501.455 91.2688V91.6684H502.775ZM569.262 -9.38254H520.375V-6.7425H569.262V-9.38254ZM519.231 -8.72166L482.321 55.3213L484.608 56.6395L521.518 -7.40338L519.231 -8.72166ZM484.608 55.3213L447.698 -8.72166L445.41 -7.40338L482.321 56.6395L484.608 55.3213ZM446.554 -9.38254H395.955V-6.7425H446.554V-9.38254ZM394.85 -7.3416L459.87 92.3893L462.082 90.9475L397.061 -8.78344L394.85 -7.3416ZM459.656 91.6684V165H462.296V91.6684H459.656ZM460.976 166.32H502.775V163.68H460.976V166.32ZM504.095 165V91.6684H501.455V165H504.095ZM503.873 92.4006L570.361 -7.3303L568.164 -8.79473L501.677 90.9362L503.873 92.4006ZM741.089 -8.06252H742.409V-9.38254H741.089V-8.06252ZM699.29 -8.06252V-9.38254H697.97V-8.06252H699.29ZM634.27 -8.06252H635.59V-9.38254H634.27V-8.06252ZM592.715 -8.06252V-9.38254H591.395V-8.06252H592.715ZM742.409 99.7349V-8.06252H739.769V99.7349H742.409ZM741.089 -9.38254H699.29V-6.7425H741.089V-9.38254ZM697.97 -8.06252V96.3128H700.61V-8.06252H697.97ZM697.97 96.3128C697.97 105.419 695.81 114.017 690.887 120.31C686.004 126.551 678.281 130.681 666.78 130.681V133.321C678.989 133.321 687.522 128.895 692.966 121.937C698.37 115.03 700.61 105.784 700.61 96.3128H697.97ZM666.78 130.681C655.404 130.681 647.678 126.553 642.762 120.307C637.807 114.011 635.59 105.411 635.59 96.3128H632.95C632.95 105.791 635.254 115.036 640.688 121.94C646.16 128.893 654.689 133.321 666.78 133.321V130.681ZM635.59 96.3128V-8.06252H632.95V96.3128H635.59ZM634.27 -9.38254H592.715V-6.7425H634.27V-9.38254ZM591.395 -8.06252V99.7349H594.035V-8.06252H591.395ZM591.395 99.7349C591.395 120.822 598.596 138.66 611.661 151.224C624.721 163.785 643.526 170.964 666.535 170.964V168.324C644.079 168.324 625.974 161.327 613.491 149.321C601.011 137.319 594.035 120.203 594.035 99.7349H591.395ZM666.535 170.964C689.423 170.964 708.406 163.785 721.677 151.232C734.955 138.673 742.409 120.835 742.409 99.7349H739.769C739.769 120.189 732.558 137.306 719.863 149.314C707.163 161.327 688.869 168.324 666.535 168.324V170.964ZM910.065 27.6255V28.9455H911.385V27.6255H910.065ZM910.065 -8.06252H911.385V-9.38254H910.065V-8.06252ZM770.491 -8.06252V-9.38254H769.171V-8.06252H770.491ZM770.491 27.6255H769.171V28.9455H770.491V27.6255ZM819.378 27.6255H820.698V26.3055H819.378V27.6255ZM819.378 165H818.058V166.32H819.378V165ZM861.177 165V166.32H862.497V165H861.177ZM861.177 27.6255V26.3055H859.857V27.6255H861.177ZM911.385 27.6255V-8.06252H908.745V27.6255H911.385ZM910.065 -9.38254H770.491V-6.7425H910.065V-9.38254ZM769.171 -8.06252V27.6255H771.811V-8.06252H769.171ZM770.491 28.9455H819.378V26.3055H770.491V28.9455ZM818.058 27.6255V165H820.698V27.6255H818.058ZM819.378 166.32H861.177V163.68H819.378V166.32ZM862.497 165V27.6255H859.857V165H862.497ZM861.177 28.9455H910.065V26.3055H861.177V28.9455ZM1092.43 165V166.32H1093.75V165H1092.43ZM1092.43 -8.06252H1093.75V-9.38254H1092.43V-8.06252ZM1050.63 -8.06252V-9.38254H1049.31V-8.06252H1050.63ZM1050.63 57.447V58.767H1051.95V57.447H1050.63ZM983.166 57.447H981.846V58.767H983.166V57.447ZM983.166 -8.06252H984.486V-9.38254H983.166V-8.06252ZM941.367 -8.06252V-9.38254H940.047V-8.06252H941.367ZM941.367 165H940.047V166.32H941.367V165ZM983.166 165V166.32H984.486V165H983.166ZM983.166 92.6462V91.3262H981.846V92.6462H983.166ZM1050.63 92.6462H1051.95V91.3262H1050.63V92.6462ZM1050.63 165H1049.31V166.32H1050.63V165ZM1093.75 165V-8.06252H1091.11V165H1093.75ZM1092.43 -9.38254H1050.63V-6.7425H1092.43V-9.38254ZM1049.31 -8.06252V57.447H1051.95V-8.06252H1049.31ZM1050.63 56.127H983.166V58.767H1050.63V56.127ZM984.486 57.447V-8.06252H981.846V57.447H984.486ZM983.166 -9.38254H941.367V-6.7425H983.166V-9.38254ZM940.047 -8.06252V165H942.687V-8.06252H940.047ZM941.367 166.32H983.166V163.68H941.367V166.32ZM984.486 165V92.6462H981.846V165H984.486ZM983.166 93.9662H1050.63V91.3262H983.166V93.9662ZM1049.31 92.6462V165H1051.95V92.6462H1049.31ZM1050.63 166.32H1092.43V163.68H1050.63V166.32ZM1182.3 165V166.32H1183.62V165H1182.3ZM1182.3 -8.06252H1183.62V-9.38254H1182.3V-8.06252ZM1140.26 -8.06252V-9.38254H1138.94V-8.06252H1140.26ZM1140.26 165H1138.94V166.32H1140.26V165ZM1183.62 165V-8.06252H1180.98V165H1183.62ZM1182.3 -9.38254H1140.26V-6.7425H1182.3V-9.38254ZM1138.94 -8.06252V165H1141.58V-8.06252H1138.94ZM1140.26 166.32H1182.3V163.68H1140.26V166.32ZM1435.38 131.267V132.587H1436.7V131.267H1435.38ZM1435.38 98.0238H1436.7V96.7038H1435.38V98.0238ZM1411.43 98.0238H1410.11V99.3438H1411.43V98.0238ZM1411.43 -8.06252H1412.75V-9.38254H1411.43V-8.06252ZM1362.3 -8.06252V-9.38254H1361.59L1361.2 -8.79827L1362.3 -8.06252ZM1291.9 96.8016L1290.8 96.0659L1290.58 96.3996V96.8016H1291.9ZM1291.9 131.267H1290.58V132.587H1291.9V131.267ZM1373.3 131.267H1374.62V129.947H1373.3V131.267ZM1373.3 165H1371.98V166.32H1373.3V165ZM1411.67 165V166.32H1412.99V165H1411.67ZM1411.67 131.267V129.947H1410.35V131.267H1411.67ZM1373.54 98.0238V99.3438H1374.86V98.0238H1373.54ZM1331.74 98.0238L1330.63 97.3113L1329.33 99.3438H1331.74V98.0238ZM1372.81 33.9809V32.6609H1372.09L1371.7 33.2684L1372.81 33.9809ZM1373.54 33.9809H1374.86V32.6609H1373.54V33.9809ZM1436.7 131.267V98.0238H1434.06V131.267H1436.7ZM1435.38 96.7038H1411.43V99.3438H1435.38V96.7038ZM1412.75 98.0238V-8.06252H1410.11V98.0238H1412.75ZM1411.43 -9.38254H1362.3V-6.7425H1411.43V-9.38254ZM1361.2 -8.79827L1290.8 96.0659L1292.99 97.5374L1363.39 -7.32677L1361.2 -8.79827ZM1290.58 96.8016V131.267H1293.22V96.8016H1290.58ZM1291.9 132.587H1373.3V129.947H1291.9V132.587ZM1371.98 131.267V165H1374.62V131.267H1371.98ZM1373.3 166.32H1411.67V163.68H1373.3V166.32ZM1412.99 165V131.267H1410.35V165H1412.99ZM1411.67 132.587H1435.38V129.947H1411.67V132.587ZM1373.54 96.7038H1331.74V99.3438H1373.54V96.7038ZM1332.85 98.7363L1373.92 34.6934L1371.7 33.2684L1330.63 97.3113L1332.85 98.7363ZM1372.81 35.3009H1373.54V32.6609H1372.81V35.3009ZM1372.22 33.9809V98.0238H1374.86V33.9809H1372.22ZM1518.71 143.489C1518.71 129.273 1506.83 118.214 1492.95 118.214V120.854C1505.46 120.854 1516.07 130.817 1516.07 143.489H1518.71ZM1492.95 118.214C1478.56 118.214 1466.69 129.771 1466.69 143.734H1469.33C1469.33 131.297 1479.95 120.854 1492.95 120.854V118.214ZM1466.69 143.734C1466.69 157.992 1478.86 168.764 1492.95 168.764V166.124C1480.14 166.124 1469.33 156.364 1469.33 143.734H1466.69ZM1492.95 168.764C1506.83 168.764 1518.71 157.706 1518.71 143.489H1516.07C1516.07 156.162 1505.46 166.124 1492.95 166.124V168.764ZM1689.52 77.9799C1689.52 53.4018 1684.86 30.4422 1673.91 13.5846C1662.91 -3.35029 1645.63 -14.0269 1620.74 -14.0269V-11.3868C1644.74 -11.3868 1661.19 -1.16394 1671.7 15.0226C1682.26 31.2864 1686.88 53.6702 1686.88 77.9799H1689.52ZM1620.74 -14.0269C1595.73 -14.0269 1578.33 -3.35351 1567.23 13.5803C1556.19 30.4382 1551.47 53.3992 1551.47 77.9799H1554.11C1554.11 53.6728 1558.79 31.2904 1569.44 15.0269C1580.04 -1.16072 1596.62 -11.3868 1620.74 -11.3868V-14.0269ZM1551.47 77.9799C1551.47 102.682 1556.19 125.884 1567.23 142.953C1578.32 160.099 1595.72 170.964 1620.74 170.964V168.324C1596.63 168.324 1580.05 157.924 1569.45 141.52C1558.79 125.04 1554.11 102.41 1554.11 77.9799H1551.47ZM1620.74 170.964C1645.64 170.964 1662.92 160.096 1673.92 142.949C1684.86 125.88 1689.52 102.679 1689.52 77.9799H1686.88C1686.88 102.413 1682.26 125.044 1671.69 141.524C1661.18 157.927 1644.73 168.324 1620.74 168.324V170.964ZM1644.84 77.9799C1644.84 89.0577 1643.86 103.01 1640.26 114.148C1636.64 125.356 1630.58 133.125 1620.74 133.125V135.765C1632.41 135.765 1639.06 126.424 1642.77 114.96C1646.5 103.427 1647.48 89.146 1647.48 77.9799H1644.84ZM1620.74 133.125C1610.76 133.125 1604.59 125.338 1600.88 114.139C1597.19 103.003 1596.15 89.053 1596.15 77.9799H1593.51C1593.51 89.1506 1594.55 103.434 1598.37 114.969C1602.18 126.442 1608.96 135.765 1620.74 135.765V133.125ZM1596.15 77.9799C1596.15 67.1529 1597.19 53.3255 1600.88 42.2509C1604.59 31.1131 1610.76 23.3234 1620.74 23.3234V20.6834C1608.96 20.6834 1602.18 30.0045 1598.37 41.4161C1594.55 52.891 1593.51 67.0518 1593.51 77.9799H1596.15ZM1620.74 23.3234C1630.58 23.3234 1636.64 31.0949 1640.26 42.2417C1643.86 53.3186 1644.84 67.1482 1644.84 77.9799H1647.48C1647.48 67.0565 1646.5 52.8979 1642.77 41.4253C1639.06 30.0226 1632.41 20.6834 1620.74 20.6834V23.3234Z" fill="url(#paint2_linear_30_24812)"/>
<defs>
<linearGradient id="paint0_linear_30_24812" x1="850" y1="252.682" x2="850" y2="507.004" gradientUnits="userSpaceOnUse">
<stop stop-color="white" stop-opacity="0.934375"/>
<stop offset="1" stop-opacity="0"/>
</linearGradient>
<linearGradient id="paint1_linear_30_24812" x1="850" y1="94.0022" x2="850" y2="375.002" gradientUnits="userSpaceOnUse">
<stop stop-color="white"/>
<stop offset="0.0001" stop-color="white"/>
<stop offset="1" stop-opacity="0"/>
</linearGradient>
<linearGradient id="paint2_linear_30_24812" x1="850" y1="-38" x2="850" y2="243" gradientUnits="userSpaceOnUse">
<stop stop-color="white"/>
<stop offset="0.0001" stop-color="white"/>
<stop offset="1" stop-opacity="0"/>
</linearGradient>
</defs>
</svg>
