<svg width="506" height="93" viewBox="0 0 506 93" fill="none" xmlns="http://www.w3.org/2000/svg">
<path d="M61.5703 72.076H46.0445C45.3554 72.0762 44.6894 72.3168 44.1682 72.7539L27.3179 86.3464V72.076H18.4881C17.7075 72.076 16.9589 71.7753 16.4069 71.2401C15.855 70.7048 15.5449 69.9789 15.5449 69.2219V17.8485C15.5449 17.0915 15.855 16.3656 16.4069 15.8303C16.9589 15.2951 17.7075 14.9944 18.4881 14.9944H77.3536C78.1342 14.9944 78.8828 15.2951 79.4348 15.8303C79.9867 16.3656 80.2968 17.0915 80.2968 17.8485V56.4856C80.291 56.9014 80.1926 57.3111 80.0084 57.6867C79.8243 58.0623 79.5588 58.3949 79.2299 58.6618L63.4466 71.3982C62.9254 71.8352 62.2594 72.0758 61.5703 72.076V72.076Z" stroke="#9A35FF" stroke-width="5.70816" stroke-linecap="round" stroke-linejoin="round"/>
<path d="M62.6374 32.1189V49.2434" stroke="#9A35FF" stroke-width="5.70816" stroke-linecap="round" stroke-linejoin="round"/>
<path d="M44.9779 32.1189V49.2434" stroke="#9A35FF" stroke-width="5.70816" stroke-linecap="round" stroke-linejoin="round"/>
<path d="M186.345 32.1191C186.345 24.2704 192.945 17.7417 200.794 17.8487C203.543 17.8804 206.224 18.7054 208.515 20.2243C210.806 21.7432 212.609 23.8915 213.709 26.411H226.302L214.779 37.9343C214.035 49.5097 208.911 60.3673 200.449 68.2998C191.986 76.2323 180.82 80.6442 169.221 80.6385C157.804 80.6385 154.95 76.3574 154.95 76.3574C154.95 76.3574 166.367 72.0763 172.075 63.514C172.075 63.514 149.242 52.0977 154.95 20.7028C154.95 20.7028 169.221 34.9732 186.345 37.8273V32.1191Z" stroke="#2871FF" stroke-width="5.70816" stroke-linecap="round" stroke-linejoin="round"/>
<path d="M323.337 60.6597C331.219 60.6597 337.608 54.2706 337.608 46.3893C337.608 38.508 331.219 32.1189 323.337 32.1189C315.456 32.1189 309.067 38.508 309.067 46.3893C309.067 54.2706 315.456 60.6597 323.337 60.6597Z" stroke="#FA41FE" stroke-width="5.70816" stroke-miterlimit="10"/>
<path d="M339.037 13.5676H307.642C298.185 13.5676 290.518 21.2345 290.518 30.6921V62.087C290.518 71.5446 298.185 79.2115 307.642 79.2115H339.037C348.495 79.2115 356.162 71.5446 356.162 62.087V30.6921C356.162 21.2345 348.495 13.5676 339.037 13.5676Z" stroke="#FA41FE" stroke-width="5.70816" stroke-linecap="round" stroke-linejoin="round"/>
<path d="M341.892 32.1189C344.256 32.1189 346.173 30.2022 346.173 27.8378C346.173 25.4734 344.256 23.5566 341.892 23.5566C339.527 23.5566 337.61 25.4734 337.61 27.8378C337.61 30.2022 339.527 32.1189 341.892 32.1189Z" fill="#FA41FE"/>
<path d="M471.749 46.3895L454.625 34.9731V57.8058L471.749 46.3895Z" stroke="#F40000" stroke-width="5.70816" stroke-linecap="round" stroke-linejoin="round"/>
<path d="M423.231 46.3893C423.231 57.0208 424.337 63.2284 425.158 66.4392C425.384 67.3104 425.812 68.1163 426.407 68.7917C427.002 69.4672 427.747 69.9934 428.583 70.3279C440.534 74.8944 460.334 74.7874 460.334 74.7874C460.334 74.7874 480.135 74.8944 492.086 70.3279C492.922 69.9934 493.667 69.4672 494.262 68.7917C494.857 68.1163 495.285 67.3104 495.511 66.4392C496.332 63.2284 497.438 57.0208 497.438 46.3893C497.438 35.7578 496.332 29.5502 495.511 26.3394C495.285 25.4682 494.857 24.6623 494.262 23.9869C493.667 23.3114 492.922 22.7852 492.086 22.4507C480.135 17.8842 460.334 17.9912 460.334 17.9912C460.334 17.9912 440.534 17.8842 428.583 22.4507C427.747 22.7852 427.002 23.3114 426.407 23.9869C425.812 24.6623 425.384 25.4682 425.158 26.3394C424.337 29.5502 423.231 35.7578 423.231 46.3893Z" stroke="#F40000" stroke-width="5.70816" stroke-linecap="round" stroke-linejoin="round"/>
</svg>
