<svg width="283" height="458" viewBox="0 0 283 458" fill="none" xmlns="http://www.w3.org/2000/svg">
<ellipse rx="74.0662" ry="178.166" transform="matrix(-0.998689 0.0511904 0.0511904 0.998689 229.624 229.041)" stroke="url(#paint0_linear_71_137)" stroke-width="0.330396" stroke-linecap="round"/>
<ellipse rx="74.0662" ry="178.166" transform="matrix(-0.997643 0.0686121 0.0686121 0.997643 229.625 229.041)" stroke="url(#paint1_linear_71_137)" stroke-width="0.330396" stroke-linecap="round"/>
<ellipse rx="74.0662" ry="178.166" transform="matrix(-0.996294 0.0860129 0.086013 0.996294 229.624 229.042)" stroke="url(#paint2_linear_71_137)" stroke-width="0.330396" stroke-linecap="round"/>
<ellipse rx="74.0662" ry="178.166" transform="matrix(-0.994641 0.103388 0.103388 0.994641 229.624 229.042)" stroke="url(#paint3_linear_71_137)" stroke-width="0.330396" stroke-linecap="round"/>
<ellipse rx="74.0662" ry="178.166" transform="matrix(-0.992685 0.120731 0.120731 0.992685 229.624 229.041)" stroke="url(#paint4_linear_71_137)" stroke-width="0.330396" stroke-linecap="round"/>
<ellipse rx="74.0662" ry="178.166" transform="matrix(-0.990427 0.138037 0.138037 0.990427 229.624 229.042)" stroke="url(#paint5_linear_71_137)" stroke-width="0.330396" stroke-linecap="round"/>
<ellipse rx="74.0662" ry="178.166" transform="matrix(-0.987867 0.155301 0.155301 0.987867 229.624 229.041)" stroke="url(#paint6_linear_71_137)" stroke-width="0.330396" stroke-linecap="round"/>
<ellipse rx="74.0662" ry="178.166" transform="matrix(-0.985006 0.172518 0.172518 0.985006 229.624 229.041)" stroke="url(#paint7_linear_71_137)" stroke-width="0.330396" stroke-linecap="round"/>
<ellipse rx="74.0662" ry="178.166" transform="matrix(-0.981845 0.189683 0.189683 0.981845 229.624 229.042)" stroke="url(#paint8_linear_71_137)" stroke-width="0.330396" stroke-linecap="round"/>
<ellipse rx="74.0662" ry="178.166" transform="matrix(-0.978386 0.20679 0.20679 0.978386 229.624 229.041)" stroke="url(#paint9_linear_71_137)" stroke-width="0.330396" stroke-linecap="round"/>
<ellipse rx="74.0662" ry="178.166" transform="matrix(-0.974628 0.223833 0.223833 0.974628 229.625 229.042)" stroke="url(#paint10_linear_71_137)" stroke-width="0.330396" stroke-linecap="round"/>
<ellipse rx="74.0662" ry="178.166" transform="matrix(-0.970573 0.240809 0.240809 0.970573 229.624 229.042)" stroke="url(#paint11_linear_71_137)" stroke-width="0.330396" stroke-linecap="round"/>
<ellipse rx="74.0662" ry="178.166" transform="matrix(-0.966222 0.257711 0.257711 0.966222 229.624 229.041)" stroke="url(#paint12_linear_71_137)" stroke-width="0.330396" stroke-linecap="round"/>
<ellipse rx="74.0662" ry="178.166" transform="matrix(-0.961577 0.274534 0.274535 0.961577 229.624 229.042)" stroke="url(#paint13_linear_71_137)" stroke-width="0.330396" stroke-linecap="round"/>
<ellipse rx="74.0662" ry="178.166" transform="matrix(-0.95664 0.291275 0.291275 0.95664 229.624 229.041)" stroke="url(#paint14_linear_71_137)" stroke-width="0.330396" stroke-linecap="round"/>
<ellipse rx="74.0662" ry="178.166" transform="matrix(-0.95141 0.307926 0.307926 0.95141 229.624 229.042)" stroke="url(#paint15_linear_71_137)" stroke-width="0.330396" stroke-linecap="round"/>
<ellipse rx="74.0662" ry="178.166" transform="matrix(-0.945891 0.324483 0.324483 0.945891 229.624 229.042)" stroke="url(#paint16_linear_71_137)" stroke-width="0.330396" stroke-linecap="round"/>
<ellipse rx="74.0662" ry="178.166" transform="matrix(-0.940084 0.340942 0.340942 0.940084 229.624 229.041)" stroke="url(#paint17_linear_71_137)" stroke-width="0.330396" stroke-linecap="round"/>
<ellipse rx="74.0662" ry="178.166" transform="matrix(-0.933991 0.357297 0.357297 0.933991 229.624 229.042)" stroke="url(#paint18_linear_71_137)" stroke-width="0.330396" stroke-linecap="round"/>
<ellipse rx="74.0662" ry="178.166" transform="matrix(-0.927613 0.373543 0.373543 0.927613 229.624 229.041)" stroke="url(#paint19_linear_71_137)" stroke-width="0.330395" stroke-linecap="round"/>
<ellipse rx="74.0662" ry="178.166" transform="matrix(-0.920952 0.389675 0.389675 0.920952 229.624 229.042)" stroke="url(#paint20_linear_71_137)" stroke-width="0.330396" stroke-linecap="round"/>
<ellipse rx="74.0662" ry="178.166" transform="matrix(-0.914011 0.405688 0.405688 0.914011 229.624 229.042)" stroke="url(#paint21_linear_71_137)" stroke-width="0.330395" stroke-linecap="round"/>
<ellipse rx="74.0662" ry="178.166" transform="matrix(-0.906792 0.421578 0.421578 0.906792 229.624 229.042)" stroke="url(#paint22_linear_71_137)" stroke-width="0.330396" stroke-linecap="round"/>
<ellipse rx="74.0662" ry="178.166" transform="matrix(-0.899296 0.43734 0.43734 0.899296 229.624 229.042)" stroke="url(#paint23_linear_71_137)" stroke-width="0.330396" stroke-linecap="round"/>
<ellipse rx="74.0662" ry="178.166" transform="matrix(-0.891527 0.452968 0.452968 0.891527 229.624 229.041)" stroke="url(#paint24_linear_71_137)" stroke-width="0.330396" stroke-linecap="round"/>
<ellipse rx="74.0662" ry="178.166" transform="matrix(-0.883486 0.468458 0.468458 0.883486 229.624 229.042)" stroke="url(#paint25_linear_71_137)" stroke-width="0.330396" stroke-linecap="round"/>
<ellipse rx="74.0662" ry="178.166" transform="matrix(-0.875175 0.483806 0.483806 0.875175 229.625 229.042)" stroke="url(#paint26_linear_71_137)" stroke-width="0.330396" stroke-linecap="round"/>
<ellipse rx="74.0662" ry="178.166" transform="matrix(-0.866598 0.499006 0.499006 0.866598 229.624 229.042)" stroke="url(#paint27_linear_71_137)" stroke-width="0.330396" stroke-linecap="round"/>
<ellipse rx="74.0662" ry="178.166" transform="matrix(-0.857758 0.514055 0.514055 0.857758 229.624 229.042)" stroke="url(#paint28_linear_71_137)" stroke-width="0.330396" stroke-linecap="round"/>
<ellipse rx="74.0662" ry="178.166" transform="matrix(-0.848655 0.528946 0.528946 0.848655 229.624 229.042)" stroke="url(#paint29_linear_71_137)" stroke-width="0.330396" stroke-linecap="round"/>
<ellipse rx="74.0662" ry="178.166" transform="matrix(-0.839295 0.543677 0.543677 0.839295 229.624 229.041)" stroke="url(#paint30_linear_71_137)" stroke-width="0.330396" stroke-linecap="round"/>
<ellipse rx="74.0662" ry="178.166" transform="matrix(-0.829679 0.558242 0.558242 0.829679 229.624 229.041)" stroke="url(#paint31_linear_71_137)" stroke-width="0.330396" stroke-linecap="round"/>
<ellipse rx="74.0662" ry="178.166" transform="matrix(-0.819809 0.572636 0.572636 0.819809 229.624 229.042)" stroke="url(#paint32_linear_71_137)" stroke-width="0.330396" stroke-linecap="round"/>
<ellipse rx="74.0662" ry="178.166" transform="matrix(-0.809691 0.586857 0.586857 0.809691 229.624 229.041)" stroke="url(#paint33_linear_71_137)" stroke-width="0.330396" stroke-linecap="round"/>
<ellipse rx="74.0662" ry="178.166" transform="matrix(-0.799325 0.600899 0.600899 0.799325 229.624 229.042)" stroke="url(#paint34_linear_71_137)" stroke-width="0.330396" stroke-linecap="round"/>
<ellipse rx="74.0662" ry="178.166" transform="matrix(-0.788716 0.614757 0.614757 0.788716 229.624 229.041)" stroke="url(#paint35_linear_71_137)" stroke-width="0.330396" stroke-linecap="round"/>
<ellipse rx="74.0662" ry="178.166" transform="matrix(-0.777867 0.628429 0.628429 0.777867 229.624 229.042)" stroke="url(#paint36_linear_71_137)" stroke-width="0.330396" stroke-linecap="round"/>
<ellipse rx="74.0662" ry="178.166" transform="matrix(-0.766781 0.641909 0.641908 0.766781 229.624 229.042)" stroke="url(#paint37_linear_71_137)" stroke-width="0.330395" stroke-linecap="round"/>
<ellipse rx="74.0662" ry="178.166" transform="matrix(-0.755462 0.655193 0.655193 0.755462 229.624 229.042)" stroke="url(#paint38_linear_71_137)" stroke-width="0.330396" stroke-linecap="round"/>
<ellipse rx="74.0662" ry="178.166" transform="matrix(-0.743912 0.668278 0.668278 0.743912 229.624 229.042)" stroke="url(#paint39_linear_71_137)" stroke-width="0.330396" stroke-linecap="round"/>
<ellipse rx="74.0662" ry="178.166" transform="matrix(-0.732136 0.681159 0.681159 0.732136 229.624 229.042)" stroke="url(#paint40_linear_71_137)" stroke-width="0.330396" stroke-linecap="round"/>
<ellipse rx="74.0662" ry="178.166" transform="matrix(-0.720136 0.693833 0.693833 0.720136 229.624 229.042)" stroke="url(#paint41_linear_71_137)" stroke-width="0.330396" stroke-linecap="round"/>
<ellipse rx="74.0662" ry="178.166" transform="matrix(-0.707917 0.706295 0.706295 0.707917 229.624 229.041)" stroke="url(#paint42_linear_71_137)" stroke-width="0.330396" stroke-linecap="round"/>
<ellipse rx="74.0662" ry="178.166" transform="matrix(-0.695483 0.718543 0.718543 0.695483 229.624 229.042)" stroke="url(#paint43_linear_71_137)" stroke-width="0.330396" stroke-linecap="round"/>
<ellipse rx="74.0662" ry="178.166" transform="matrix(-0.682837 0.730571 0.730571 0.682837 229.624 229.042)" stroke="url(#paint44_linear_71_137)" stroke-width="0.330396" stroke-linecap="round"/>
<ellipse rx="74.0662" ry="178.166" transform="matrix(-0.669983 0.742377 0.742377 0.669983 229.624 229.042)" stroke="url(#paint45_linear_71_137)" stroke-width="0.330396" stroke-linecap="round"/>
<ellipse rx="74.0662" ry="178.166" transform="matrix(-0.656924 0.753957 0.753957 0.656924 229.624 229.041)" stroke="url(#paint46_linear_71_137)" stroke-width="0.330395" stroke-linecap="round"/>
<ellipse rx="74.0662" ry="178.166" transform="matrix(-0.643666 0.765307 0.765307 0.643666 229.624 229.042)" stroke="url(#paint47_linear_71_137)" stroke-width="0.330396" stroke-linecap="round"/>
<ellipse rx="74.0662" ry="178.166" transform="matrix(-0.630212 0.776424 0.776424 0.630212 229.624 229.042)" stroke="url(#paint48_linear_71_137)" stroke-width="0.330396" stroke-linecap="round"/>
<ellipse rx="74.0662" ry="178.166" transform="matrix(-0.616565 0.787304 0.787304 0.616565 229.624 229.041)" stroke="url(#paint49_linear_71_137)" stroke-width="0.330396" stroke-linecap="round"/>
<ellipse rx="74.0662" ry="178.166" transform="matrix(-0.602731 0.797945 0.797945 0.602731 229.624 229.042)" stroke="url(#paint50_linear_71_137)" stroke-width="0.330396" stroke-linecap="round"/>
<ellipse rx="74.0662" ry="178.166" transform="matrix(-0.588713 0.808342 0.808342 0.588713 229.625 229.042)" stroke="url(#paint51_linear_71_137)" stroke-width="0.330396" stroke-linecap="round"/>
<ellipse rx="74.0662" ry="178.166" transform="matrix(-0.574516 0.818494 0.818494 0.574516 229.624 229.041)" stroke="url(#paint52_linear_71_137)" stroke-width="0.330396" stroke-linecap="round"/>
<ellipse rx="74.0662" ry="178.166" transform="matrix(-0.560144 0.828396 0.828396 0.560144 229.624 229.041)" stroke="url(#paint53_linear_71_137)" stroke-width="0.330396" stroke-linecap="round"/>
<ellipse rx="74.0662" ry="178.166" transform="matrix(-0.545601 0.838045 0.838045 0.545601 229.624 229.041)" stroke="url(#paint54_linear_71_137)" stroke-width="0.330396" stroke-linecap="round"/>
<ellipse rx="74.0662" ry="178.166" transform="matrix(-0.530892 0.84744 0.84744 0.530892 229.624 229.042)" stroke="url(#paint55_linear_71_137)" stroke-width="0.330396" stroke-linecap="round"/>
<ellipse rx="74.0662" ry="178.166" transform="matrix(-0.516021 0.856576 0.856576 0.516021 229.625 229.041)" stroke="url(#paint56_linear_71_137)" stroke-width="0.330395" stroke-linecap="round"/>
<ellipse rx="74.0662" ry="178.166" transform="matrix(-0.500993 0.865451 0.865451 0.500993 229.624 229.042)" stroke="url(#paint57_linear_71_137)" stroke-width="0.330396" stroke-linecap="round"/>
<ellipse rx="74.0662" ry="178.166" transform="matrix(-0.485813 0.874063 0.874063 0.485813 229.624 229.041)" stroke="url(#paint58_linear_71_137)" stroke-width="0.330396" stroke-linecap="round"/>
<ellipse rx="74.0662" ry="178.166" transform="matrix(-0.470484 0.882408 0.882408 0.470484 229.624 229.041)" stroke="url(#paint59_linear_71_137)" stroke-width="0.330395" stroke-linecap="round"/>
<ellipse rx="74.0662" ry="178.166" transform="matrix(-0.455012 0.890485 0.890485 0.455012 229.625 229.041)" stroke="url(#paint60_linear_71_137)" stroke-width="0.330396" stroke-linecap="round"/>
<ellipse rx="74.0662" ry="178.166" transform="matrix(-0.439402 0.898291 0.898291 0.439402 229.624 229.041)" stroke="url(#paint61_linear_71_137)" stroke-width="0.330396" stroke-linecap="round"/>
<ellipse rx="74.0662" ry="178.166" transform="matrix(-0.423658 0.905822 0.905822 0.423658 229.624 229.041)" stroke="url(#paint62_linear_71_137)" stroke-width="0.330396" stroke-linecap="round"/>
<ellipse rx="74.0662" ry="178.166" transform="matrix(-0.407784 0.913078 0.913078 0.407784 229.625 229.041)" stroke="url(#paint63_linear_71_137)" stroke-width="0.330396" stroke-linecap="round"/>
<ellipse rx="74.0662" ry="178.166" transform="matrix(-0.391787 0.920056 0.920056 0.391787 229.624 229.041)" stroke="url(#paint64_linear_71_137)" stroke-width="0.330396" stroke-linecap="round"/>
<ellipse rx="74.0662" ry="178.166" transform="matrix(-0.37567 0.926754 0.926754 0.37567 229.624 229.042)" stroke="url(#paint65_linear_71_137)" stroke-width="0.330396" stroke-linecap="round"/>
<ellipse rx="74.0662" ry="178.166" transform="matrix(-0.359439 0.933169 0.933169 0.359439 229.624 229.041)" stroke="url(#paint66_linear_71_137)" stroke-width="0.330396" stroke-linecap="round"/>
<ellipse rx="74.0662" ry="178.166" transform="matrix(-0.343098 0.9393 0.9393 0.343098 229.624 229.041)" stroke="url(#paint67_linear_71_137)" stroke-width="0.330396" stroke-linecap="round"/>
<ellipse rx="74.0662" ry="178.166" transform="matrix(-0.326652 0.945145 0.945144 0.326653 229.624 229.042)" stroke="url(#paint68_linear_71_137)" stroke-width="0.330396" stroke-linecap="round"/>
<ellipse rx="74.0662" ry="178.166" transform="matrix(-0.310108 0.950701 0.950701 0.310108 229.624 229.042)" stroke="url(#paint69_linear_71_137)" stroke-width="0.330396" stroke-linecap="round"/>
<ellipse rx="74.0662" ry="178.166" transform="matrix(-0.293469 0.955969 0.955969 0.293468 229.624 229.042)" stroke="url(#paint70_linear_71_137)" stroke-width="0.330396" stroke-linecap="round"/>
<ellipse rx="74.0662" ry="178.166" transform="matrix(-0.27674 0.960945 0.960945 0.27674 229.624 229.042)" stroke="url(#paint71_linear_71_137)" stroke-width="0.330396" stroke-linecap="round"/>
<ellipse rx="74.0662" ry="178.166" transform="matrix(-0.259927 0.965628 0.965628 0.259927 229.624 229.042)" stroke="url(#paint72_linear_71_137)" stroke-width="0.330395" stroke-linecap="round"/>
<ellipse rx="74.0662" ry="178.166" transform="matrix(-0.243035 0.970018 0.970018 0.243035 229.624 229.041)" stroke="url(#paint73_linear_71_137)" stroke-width="0.330396" stroke-linecap="round"/>
<ellipse rx="74.0662" ry="178.166" transform="matrix(-0.226069 0.974111 0.974111 0.226069 229.624 229.042)" stroke="url(#paint74_linear_71_137)" stroke-width="0.330396" stroke-linecap="round"/>
<ellipse rx="74.0662" ry="178.166" transform="matrix(-0.209034 0.977908 0.977908 0.209034 229.624 229.042)" stroke="url(#paint75_linear_71_137)" stroke-width="0.330396" stroke-linecap="round"/>
<ellipse rx="74.0662" ry="178.166" transform="matrix(-0.191935 0.981408 0.981408 0.191935 229.624 229.042)" stroke="url(#paint76_linear_71_137)" stroke-width="0.330396" stroke-linecap="round"/>
<ellipse rx="74.0662" ry="178.166" transform="matrix(-0.174778 0.984608 0.984608 0.174778 229.625 229.041)" stroke="url(#paint77_linear_71_137)" stroke-width="0.330396" stroke-linecap="round"/>
<ellipse rx="74.0662" ry="178.166" transform="matrix(-0.157567 0.987508 0.987508 0.157567 229.625 229.041)" stroke="url(#paint78_linear_71_137)" stroke-width="0.330396" stroke-linecap="round"/>
<ellipse rx="74.0662" ry="178.166" transform="matrix(-0.140309 0.990108 0.990108 0.140309 229.624 229.042)" stroke="url(#paint79_linear_71_137)" stroke-width="0.330396" stroke-linecap="round"/>
<ellipse rx="74.0662" ry="178.166" transform="matrix(-0.123008 0.992406 0.992406 0.123008 229.624 229.042)" stroke="url(#paint80_linear_71_137)" stroke-width="0.330396" stroke-linecap="round"/>
<ellipse rx="74.0662" ry="178.166" transform="matrix(-0.105669 0.994401 0.994401 0.105669 229.624 229.041)" stroke="url(#paint81_linear_71_137)" stroke-width="0.330396" stroke-linecap="round"/>
<ellipse rx="74.0662" ry="178.166" transform="matrix(-0.0882985 0.996094 0.996094 0.0882985 229.624 229.041)" stroke="url(#paint82_linear_71_137)" stroke-width="0.330396" stroke-linecap="round"/>
<ellipse rx="74.0662" ry="178.166" transform="matrix(-0.0709008 0.997483 0.997483 0.0709008 229.625 229.041)" stroke="url(#paint83_linear_71_137)" stroke-width="0.330396" stroke-linecap="round"/>
<ellipse rx="74.0662" ry="178.166" transform="matrix(-0.0534815 0.998569 0.998569 0.0534815 229.624 229.042)" stroke="url(#paint84_linear_71_137)" stroke-width="0.330396" stroke-linecap="round"/>
<ellipse rx="74.0662" ry="178.166" transform="matrix(-0.0360459 0.99935 0.99935 0.0360459 229.624 229.042)" stroke="url(#paint85_linear_71_137)" stroke-width="0.330396" stroke-linecap="round"/>
<ellipse rx="74.0662" ry="178.166" transform="matrix(-0.0185993 0.999827 0.999827 0.0185993 229.624 229.042)" stroke="url(#paint86_linear_71_137)" stroke-width="0.330396" stroke-linecap="round"/>
<ellipse rx="74.0662" ry="178.166" transform="matrix(-0.00114707 0.999999 0.999999 0.00114705 229.624 229.042)" stroke="url(#paint87_linear_71_137)" stroke-width="0.330396" stroke-linecap="round"/>
<ellipse rx="74.0662" ry="178.166" transform="matrix(0.0163055 0.999867 0.999867 -0.0163055 229.624 229.042)" stroke="url(#paint88_linear_71_137)" stroke-width="0.330396" stroke-linecap="round"/>
<ellipse rx="74.0662" ry="178.166" transform="matrix(0.0337531 0.99943 0.99943 -0.0337531 229.624 229.041)" stroke="url(#paint89_linear_71_137)" stroke-width="0.330396" stroke-linecap="round"/>
<ellipse rx="74.0662" ry="178.166" transform="matrix(0.0511904 0.998689 0.998689 -0.0511904 229.624 229.042)" stroke="url(#paint90_linear_71_137)" stroke-width="0.330396" stroke-linecap="round"/>
<ellipse rx="74.0662" ry="178.166" transform="matrix(0.0686121 0.997643 0.997643 -0.0686121 229.625 229.041)" stroke="url(#paint91_linear_71_137)" stroke-width="0.330396" stroke-linecap="round"/>
<ellipse rx="74.0662" ry="178.166" transform="matrix(0.0860129 0.996294 0.996294 -0.086013 229.624 229.042)" stroke="url(#paint92_linear_71_137)" stroke-width="0.330396" stroke-linecap="round"/>
<ellipse rx="74.0662" ry="178.166" transform="matrix(0.103388 0.994641 0.994641 -0.103388 229.624 229.041)" stroke="url(#paint93_linear_71_137)" stroke-width="0.330396" stroke-linecap="round"/>
<ellipse rx="74.0662" ry="178.166" transform="matrix(0.120731 0.992685 0.992685 -0.120731 229.624 229.042)" stroke="url(#paint94_linear_71_137)" stroke-width="0.330396" stroke-linecap="round"/>
<ellipse rx="74.0662" ry="178.166" transform="matrix(0.138037 0.990427 0.990427 -0.138037 229.624 229.041)" stroke="url(#paint95_linear_71_137)" stroke-width="0.330396" stroke-linecap="round"/>
<ellipse rx="74.0662" ry="178.166" transform="matrix(0.155301 0.987867 0.987867 -0.155301 229.624 229.042)" stroke="url(#paint96_linear_71_137)" stroke-width="0.330396" stroke-linecap="round"/>
<ellipse rx="74.0662" ry="178.166" transform="matrix(0.172518 0.985006 0.985006 -0.172518 229.624 229.042)" stroke="url(#paint97_linear_71_137)" stroke-width="0.330396" stroke-linecap="round"/>
<ellipse rx="74.0662" ry="178.166" transform="matrix(0.189683 0.981845 0.981845 -0.189683 229.624 229.042)" stroke="url(#paint98_linear_71_137)" stroke-width="0.330396" stroke-linecap="round"/>
<ellipse rx="74.0662" ry="178.166" transform="matrix(0.20679 0.978386 0.978386 -0.20679 229.624 229.042)" stroke="url(#paint99_linear_71_137)" stroke-width="0.330396" stroke-linecap="round"/>
<defs>
<linearGradient id="paint0_linear_71_137" x1="30.8493" y1="178.535" x2="118.951" y2="178.535" gradientUnits="userSpaceOnUse">
<stop stop-color="#FAAF3A"/>
<stop offset="1" stop-color="#8366F4"/>
</linearGradient>
<linearGradient id="paint1_linear_71_137" x1="30.8494" y1="178.535" x2="118.951" y2="178.535" gradientUnits="userSpaceOnUse">
<stop stop-color="#FAAF3A"/>
<stop offset="1" stop-color="#8366F4"/>
</linearGradient>
<linearGradient id="paint2_linear_71_137" x1="30.8493" y1="178.535" x2="118.951" y2="178.535" gradientUnits="userSpaceOnUse">
<stop stop-color="#FAAF3A"/>
<stop offset="1" stop-color="#8366F4"/>
</linearGradient>
<linearGradient id="paint3_linear_71_137" x1="30.8494" y1="178.535" x2="118.951" y2="178.535" gradientUnits="userSpaceOnUse">
<stop stop-color="#FAAF3A"/>
<stop offset="1" stop-color="#8366F4"/>
</linearGradient>
<linearGradient id="paint4_linear_71_137" x1="30.8494" y1="178.535" x2="118.951" y2="178.535" gradientUnits="userSpaceOnUse">
<stop stop-color="#FAAF3A"/>
<stop offset="1" stop-color="#8366F4"/>
</linearGradient>
<linearGradient id="paint5_linear_71_137" x1="30.8493" y1="178.535" x2="118.951" y2="178.535" gradientUnits="userSpaceOnUse">
<stop stop-color="#FAAF3A"/>
<stop offset="1" stop-color="#8366F4"/>
</linearGradient>
<linearGradient id="paint6_linear_71_137" x1="30.8493" y1="178.535" x2="118.951" y2="178.535" gradientUnits="userSpaceOnUse">
<stop stop-color="#FAAF3A"/>
<stop offset="1" stop-color="#8366F4"/>
</linearGradient>
<linearGradient id="paint7_linear_71_137" x1="30.8494" y1="178.535" x2="118.951" y2="178.535" gradientUnits="userSpaceOnUse">
<stop stop-color="#FAAF3A"/>
<stop offset="1" stop-color="#8366F4"/>
</linearGradient>
<linearGradient id="paint8_linear_71_137" x1="30.8494" y1="178.535" x2="118.951" y2="178.535" gradientUnits="userSpaceOnUse">
<stop stop-color="#FAAF3A"/>
<stop offset="1" stop-color="#8366F4"/>
</linearGradient>
<linearGradient id="paint9_linear_71_137" x1="30.8493" y1="178.535" x2="118.951" y2="178.535" gradientUnits="userSpaceOnUse">
<stop stop-color="#FAAF3A"/>
<stop offset="1" stop-color="#8366F4"/>
</linearGradient>
<linearGradient id="paint10_linear_71_137" x1="30.8494" y1="178.535" x2="118.951" y2="178.535" gradientUnits="userSpaceOnUse">
<stop stop-color="#FAAF3A"/>
<stop offset="1" stop-color="#8366F4"/>
</linearGradient>
<linearGradient id="paint11_linear_71_137" x1="30.8493" y1="178.535" x2="118.951" y2="178.535" gradientUnits="userSpaceOnUse">
<stop stop-color="#FAAF3A"/>
<stop offset="1" stop-color="#8366F4"/>
</linearGradient>
<linearGradient id="paint12_linear_71_137" x1="30.8493" y1="178.535" x2="118.951" y2="178.535" gradientUnits="userSpaceOnUse">
<stop stop-color="#FAAF3A"/>
<stop offset="1" stop-color="#8366F4"/>
</linearGradient>
<linearGradient id="paint13_linear_71_137" x1="30.8494" y1="178.535" x2="118.951" y2="178.535" gradientUnits="userSpaceOnUse">
<stop stop-color="#FAAF3A"/>
<stop offset="1" stop-color="#8366F4"/>
</linearGradient>
<linearGradient id="paint14_linear_71_137" x1="30.8494" y1="178.535" x2="118.951" y2="178.535" gradientUnits="userSpaceOnUse">
<stop stop-color="#FAAF3A"/>
<stop offset="1" stop-color="#8366F4"/>
</linearGradient>
<linearGradient id="paint15_linear_71_137" x1="30.8494" y1="178.535" x2="118.951" y2="178.535" gradientUnits="userSpaceOnUse">
<stop stop-color="#FAAF3A"/>
<stop offset="1" stop-color="#8366F4"/>
</linearGradient>
<linearGradient id="paint16_linear_71_137" x1="30.8493" y1="178.535" x2="118.951" y2="178.535" gradientUnits="userSpaceOnUse">
<stop stop-color="#FAAF3A"/>
<stop offset="1" stop-color="#8366F4"/>
</linearGradient>
<linearGradient id="paint17_linear_71_137" x1="30.8494" y1="178.535" x2="118.951" y2="178.535" gradientUnits="userSpaceOnUse">
<stop stop-color="#FAAF3A"/>
<stop offset="1" stop-color="#8366F4"/>
</linearGradient>
<linearGradient id="paint18_linear_71_137" x1="30.8493" y1="178.535" x2="118.951" y2="178.535" gradientUnits="userSpaceOnUse">
<stop stop-color="#FAAF3A"/>
<stop offset="1" stop-color="#8366F4"/>
</linearGradient>
<linearGradient id="paint19_linear_71_137" x1="30.8493" y1="178.535" x2="118.951" y2="178.535" gradientUnits="userSpaceOnUse">
<stop stop-color="#FAAF3A"/>
<stop offset="1" stop-color="#8366F4"/>
</linearGradient>
<linearGradient id="paint20_linear_71_137" x1="30.8493" y1="178.535" x2="118.951" y2="178.535" gradientUnits="userSpaceOnUse">
<stop stop-color="#FAAF3A"/>
<stop offset="1" stop-color="#8366F4"/>
</linearGradient>
<linearGradient id="paint21_linear_71_137" x1="30.8493" y1="178.535" x2="118.951" y2="178.535" gradientUnits="userSpaceOnUse">
<stop stop-color="#FAAF3A"/>
<stop offset="1" stop-color="#8366F4"/>
</linearGradient>
<linearGradient id="paint22_linear_71_137" x1="30.8493" y1="178.535" x2="118.951" y2="178.535" gradientUnits="userSpaceOnUse">
<stop stop-color="#FAAF3A"/>
<stop offset="1" stop-color="#8366F4"/>
</linearGradient>
<linearGradient id="paint23_linear_71_137" x1="30.8493" y1="178.535" x2="118.951" y2="178.535" gradientUnits="userSpaceOnUse">
<stop stop-color="#FAAF3A"/>
<stop offset="1" stop-color="#8366F4"/>
</linearGradient>
<linearGradient id="paint24_linear_71_137" x1="30.8493" y1="178.535" x2="118.951" y2="178.535" gradientUnits="userSpaceOnUse">
<stop stop-color="#FAAF3A"/>
<stop offset="1" stop-color="#8366F4"/>
</linearGradient>
<linearGradient id="paint25_linear_71_137" x1="30.8494" y1="178.535" x2="118.951" y2="178.535" gradientUnits="userSpaceOnUse">
<stop stop-color="#FAAF3A"/>
<stop offset="1" stop-color="#8366F4"/>
</linearGradient>
<linearGradient id="paint26_linear_71_137" x1="30.8493" y1="178.535" x2="118.951" y2="178.535" gradientUnits="userSpaceOnUse">
<stop stop-color="#FAAF3A"/>
<stop offset="1" stop-color="#8366F4"/>
</linearGradient>
<linearGradient id="paint27_linear_71_137" x1="30.8494" y1="178.535" x2="118.951" y2="178.535" gradientUnits="userSpaceOnUse">
<stop stop-color="#FAAF3A"/>
<stop offset="1" stop-color="#8366F4"/>
</linearGradient>
<linearGradient id="paint28_linear_71_137" x1="30.8494" y1="178.535" x2="118.951" y2="178.535" gradientUnits="userSpaceOnUse">
<stop stop-color="#FAAF3A"/>
<stop offset="1" stop-color="#8366F4"/>
</linearGradient>
<linearGradient id="paint29_linear_71_137" x1="30.8493" y1="178.535" x2="118.951" y2="178.535" gradientUnits="userSpaceOnUse">
<stop stop-color="#FAAF3A"/>
<stop offset="1" stop-color="#8366F4"/>
</linearGradient>
<linearGradient id="paint30_linear_71_137" x1="30.8493" y1="178.535" x2="118.951" y2="178.535" gradientUnits="userSpaceOnUse">
<stop stop-color="#FAAF3A"/>
<stop offset="1" stop-color="#8366F4"/>
</linearGradient>
<linearGradient id="paint31_linear_71_137" x1="30.8493" y1="178.535" x2="118.951" y2="178.535" gradientUnits="userSpaceOnUse">
<stop stop-color="#FAAF3A"/>
<stop offset="1" stop-color="#8366F4"/>
</linearGradient>
<linearGradient id="paint32_linear_71_137" x1="30.8493" y1="178.535" x2="118.951" y2="178.535" gradientUnits="userSpaceOnUse">
<stop stop-color="#FAAF3A"/>
<stop offset="1" stop-color="#8366F4"/>
</linearGradient>
<linearGradient id="paint33_linear_71_137" x1="30.8493" y1="178.535" x2="118.951" y2="178.535" gradientUnits="userSpaceOnUse">
<stop stop-color="#FAAF3A"/>
<stop offset="1" stop-color="#8366F4"/>
</linearGradient>
<linearGradient id="paint34_linear_71_137" x1="30.8493" y1="178.535" x2="118.951" y2="178.535" gradientUnits="userSpaceOnUse">
<stop stop-color="#FAAF3A"/>
<stop offset="1" stop-color="#8366F4"/>
</linearGradient>
<linearGradient id="paint35_linear_71_137" x1="30.8493" y1="178.535" x2="118.951" y2="178.535" gradientUnits="userSpaceOnUse">
<stop stop-color="#FAAF3A"/>
<stop offset="1" stop-color="#8366F4"/>
</linearGradient>
<linearGradient id="paint36_linear_71_137" x1="30.8493" y1="178.535" x2="118.951" y2="178.535" gradientUnits="userSpaceOnUse">
<stop stop-color="#FAAF3A"/>
<stop offset="1" stop-color="#8366F4"/>
</linearGradient>
<linearGradient id="paint37_linear_71_137" x1="30.8493" y1="178.535" x2="118.951" y2="178.535" gradientUnits="userSpaceOnUse">
<stop stop-color="#FAAF3A"/>
<stop offset="1" stop-color="#8366F4"/>
</linearGradient>
<linearGradient id="paint38_linear_71_137" x1="30.8493" y1="178.535" x2="118.951" y2="178.535" gradientUnits="userSpaceOnUse">
<stop stop-color="#FAAF3A"/>
<stop offset="1" stop-color="#8366F4"/>
</linearGradient>
<linearGradient id="paint39_linear_71_137" x1="30.8493" y1="178.535" x2="118.951" y2="178.535" gradientUnits="userSpaceOnUse">
<stop stop-color="#FAAF3A"/>
<stop offset="1" stop-color="#8366F4"/>
</linearGradient>
<linearGradient id="paint40_linear_71_137" x1="30.8493" y1="178.535" x2="118.951" y2="178.535" gradientUnits="userSpaceOnUse">
<stop stop-color="#FAAF3A"/>
<stop offset="1" stop-color="#8366F4"/>
</linearGradient>
<linearGradient id="paint41_linear_71_137" x1="30.8494" y1="178.535" x2="118.951" y2="178.535" gradientUnits="userSpaceOnUse">
<stop stop-color="#FAAF3A"/>
<stop offset="1" stop-color="#8366F4"/>
</linearGradient>
<linearGradient id="paint42_linear_71_137" x1="30.8493" y1="178.535" x2="118.951" y2="178.535" gradientUnits="userSpaceOnUse">
<stop stop-color="#FAAF3A"/>
<stop offset="1" stop-color="#8366F4"/>
</linearGradient>
<linearGradient id="paint43_linear_71_137" x1="30.8493" y1="178.535" x2="118.951" y2="178.535" gradientUnits="userSpaceOnUse">
<stop stop-color="#FAAF3A"/>
<stop offset="1" stop-color="#8366F4"/>
</linearGradient>
<linearGradient id="paint44_linear_71_137" x1="30.8493" y1="178.535" x2="118.951" y2="178.535" gradientUnits="userSpaceOnUse">
<stop stop-color="#FAAF3A"/>
<stop offset="1" stop-color="#8366F4"/>
</linearGradient>
<linearGradient id="paint45_linear_71_137" x1="30.8493" y1="178.535" x2="118.951" y2="178.535" gradientUnits="userSpaceOnUse">
<stop stop-color="#FAAF3A"/>
<stop offset="1" stop-color="#8366F4"/>
</linearGradient>
<linearGradient id="paint46_linear_71_137" x1="30.8493" y1="178.535" x2="118.951" y2="178.535" gradientUnits="userSpaceOnUse">
<stop stop-color="#FAAF3A"/>
<stop offset="1" stop-color="#8366F4"/>
</linearGradient>
<linearGradient id="paint47_linear_71_137" x1="30.8493" y1="178.535" x2="118.951" y2="178.535" gradientUnits="userSpaceOnUse">
<stop stop-color="#FAAF3A"/>
<stop offset="1" stop-color="#8366F4"/>
</linearGradient>
<linearGradient id="paint48_linear_71_137" x1="30.8493" y1="178.535" x2="118.951" y2="178.535" gradientUnits="userSpaceOnUse">
<stop stop-color="#FAAF3A"/>
<stop offset="1" stop-color="#8366F4"/>
</linearGradient>
<linearGradient id="paint49_linear_71_137" x1="30.8493" y1="178.535" x2="118.951" y2="178.535" gradientUnits="userSpaceOnUse">
<stop stop-color="#FAAF3A"/>
<stop offset="1" stop-color="#8366F4"/>
</linearGradient>
<linearGradient id="paint50_linear_71_137" x1="30.8493" y1="178.535" x2="118.951" y2="178.535" gradientUnits="userSpaceOnUse">
<stop stop-color="#FAAF3A"/>
<stop offset="1" stop-color="#8366F4"/>
</linearGradient>
<linearGradient id="paint51_linear_71_137" x1="30.8494" y1="178.535" x2="118.951" y2="178.535" gradientUnits="userSpaceOnUse">
<stop stop-color="#FAAF3A"/>
<stop offset="1" stop-color="#8366F4"/>
</linearGradient>
<linearGradient id="paint52_linear_71_137" x1="30.8493" y1="178.535" x2="118.951" y2="178.535" gradientUnits="userSpaceOnUse">
<stop stop-color="#FAAF3A"/>
<stop offset="1" stop-color="#8366F4"/>
</linearGradient>
<linearGradient id="paint53_linear_71_137" x1="30.8493" y1="178.535" x2="118.951" y2="178.535" gradientUnits="userSpaceOnUse">
<stop stop-color="#FAAF3A"/>
<stop offset="1" stop-color="#8366F4"/>
</linearGradient>
<linearGradient id="paint54_linear_71_137" x1="30.8493" y1="178.535" x2="118.951" y2="178.535" gradientUnits="userSpaceOnUse">
<stop stop-color="#FAAF3A"/>
<stop offset="1" stop-color="#8366F4"/>
</linearGradient>
<linearGradient id="paint55_linear_71_137" x1="30.8493" y1="178.535" x2="118.951" y2="178.535" gradientUnits="userSpaceOnUse">
<stop stop-color="#FAAF3A"/>
<stop offset="1" stop-color="#8366F4"/>
</linearGradient>
<linearGradient id="paint56_linear_71_137" x1="30.8493" y1="178.535" x2="118.951" y2="178.535" gradientUnits="userSpaceOnUse">
<stop stop-color="#FAAF3A"/>
<stop offset="1" stop-color="#8366F4"/>
</linearGradient>
<linearGradient id="paint57_linear_71_137" x1="30.8493" y1="178.535" x2="118.951" y2="178.535" gradientUnits="userSpaceOnUse">
<stop stop-color="#FAAF3A"/>
<stop offset="1" stop-color="#8366F4"/>
</linearGradient>
<linearGradient id="paint58_linear_71_137" x1="30.8493" y1="178.535" x2="118.951" y2="178.535" gradientUnits="userSpaceOnUse">
<stop stop-color="#FAAF3A"/>
<stop offset="1" stop-color="#8366F4"/>
</linearGradient>
<linearGradient id="paint59_linear_71_137" x1="30.8493" y1="178.535" x2="118.951" y2="178.535" gradientUnits="userSpaceOnUse">
<stop stop-color="#FAAF3A"/>
<stop offset="1" stop-color="#8366F4"/>
</linearGradient>
<linearGradient id="paint60_linear_71_137" x1="30.8493" y1="178.535" x2="118.951" y2="178.535" gradientUnits="userSpaceOnUse">
<stop stop-color="#FAAF3A"/>
<stop offset="1" stop-color="#8366F4"/>
</linearGradient>
<linearGradient id="paint61_linear_71_137" x1="30.8494" y1="178.535" x2="118.951" y2="178.535" gradientUnits="userSpaceOnUse">
<stop stop-color="#FAAF3A"/>
<stop offset="1" stop-color="#8366F4"/>
</linearGradient>
<linearGradient id="paint62_linear_71_137" x1="30.8494" y1="178.535" x2="118.951" y2="178.535" gradientUnits="userSpaceOnUse">
<stop stop-color="#FAAF3A"/>
<stop offset="1" stop-color="#8366F4"/>
</linearGradient>
<linearGradient id="paint63_linear_71_137" x1="30.8493" y1="178.535" x2="118.951" y2="178.535" gradientUnits="userSpaceOnUse">
<stop stop-color="#FAAF3A"/>
<stop offset="1" stop-color="#8366F4"/>
</linearGradient>
<linearGradient id="paint64_linear_71_137" x1="30.8493" y1="178.535" x2="118.951" y2="178.535" gradientUnits="userSpaceOnUse">
<stop stop-color="#FAAF3A"/>
<stop offset="1" stop-color="#8366F4"/>
</linearGradient>
<linearGradient id="paint65_linear_71_137" x1="30.8494" y1="178.535" x2="118.951" y2="178.535" gradientUnits="userSpaceOnUse">
<stop stop-color="#FAAF3A"/>
<stop offset="1" stop-color="#8366F4"/>
</linearGradient>
<linearGradient id="paint66_linear_71_137" x1="30.8493" y1="178.535" x2="118.951" y2="178.535" gradientUnits="userSpaceOnUse">
<stop stop-color="#FAAF3A"/>
<stop offset="1" stop-color="#8366F4"/>
</linearGradient>
<linearGradient id="paint67_linear_71_137" x1="30.8493" y1="178.535" x2="118.951" y2="178.535" gradientUnits="userSpaceOnUse">
<stop stop-color="#FAAF3A"/>
<stop offset="1" stop-color="#8366F4"/>
</linearGradient>
<linearGradient id="paint68_linear_71_137" x1="30.8493" y1="178.535" x2="118.951" y2="178.535" gradientUnits="userSpaceOnUse">
<stop stop-color="#FAAF3A"/>
<stop offset="1" stop-color="#8366F4"/>
</linearGradient>
<linearGradient id="paint69_linear_71_137" x1="30.8493" y1="178.535" x2="118.951" y2="178.535" gradientUnits="userSpaceOnUse">
<stop stop-color="#FAAF3A"/>
<stop offset="1" stop-color="#8366F4"/>
</linearGradient>
<linearGradient id="paint70_linear_71_137" x1="30.8493" y1="178.535" x2="118.951" y2="178.535" gradientUnits="userSpaceOnUse">
<stop stop-color="#FAAF3A"/>
<stop offset="1" stop-color="#8366F4"/>
</linearGradient>
<linearGradient id="paint71_linear_71_137" x1="30.8493" y1="178.535" x2="118.951" y2="178.535" gradientUnits="userSpaceOnUse">
<stop stop-color="#FAAF3A"/>
<stop offset="1" stop-color="#8366F4"/>
</linearGradient>
<linearGradient id="paint72_linear_71_137" x1="30.8493" y1="178.535" x2="118.951" y2="178.535" gradientUnits="userSpaceOnUse">
<stop stop-color="#FAAF3A"/>
<stop offset="1" stop-color="#8366F4"/>
</linearGradient>
<linearGradient id="paint73_linear_71_137" x1="30.8493" y1="178.535" x2="118.951" y2="178.535" gradientUnits="userSpaceOnUse">
<stop stop-color="#FAAF3A"/>
<stop offset="1" stop-color="#8366F4"/>
</linearGradient>
<linearGradient id="paint74_linear_71_137" x1="30.8494" y1="178.535" x2="118.951" y2="178.535" gradientUnits="userSpaceOnUse">
<stop stop-color="#FAAF3A"/>
<stop offset="1" stop-color="#8366F4"/>
</linearGradient>
<linearGradient id="paint75_linear_71_137" x1="30.8493" y1="178.535" x2="118.951" y2="178.535" gradientUnits="userSpaceOnUse">
<stop stop-color="#FAAF3A"/>
<stop offset="1" stop-color="#8366F4"/>
</linearGradient>
<linearGradient id="paint76_linear_71_137" x1="30.8493" y1="178.535" x2="118.951" y2="178.535" gradientUnits="userSpaceOnUse">
<stop stop-color="#FAAF3A"/>
<stop offset="1" stop-color="#8366F4"/>
</linearGradient>
<linearGradient id="paint77_linear_71_137" x1="30.8494" y1="178.535" x2="118.951" y2="178.535" gradientUnits="userSpaceOnUse">
<stop stop-color="#FAAF3A"/>
<stop offset="1" stop-color="#8366F4"/>
</linearGradient>
<linearGradient id="paint78_linear_71_137" x1="30.8494" y1="178.535" x2="118.951" y2="178.535" gradientUnits="userSpaceOnUse">
<stop stop-color="#FAAF3A"/>
<stop offset="1" stop-color="#8366F4"/>
</linearGradient>
<linearGradient id="paint79_linear_71_137" x1="30.8494" y1="178.535" x2="118.951" y2="178.535" gradientUnits="userSpaceOnUse">
<stop stop-color="#FAAF3A"/>
<stop offset="1" stop-color="#8366F4"/>
</linearGradient>
<linearGradient id="paint80_linear_71_137" x1="30.8493" y1="178.535" x2="118.951" y2="178.535" gradientUnits="userSpaceOnUse">
<stop stop-color="#FAAF3A"/>
<stop offset="1" stop-color="#8366F4"/>
</linearGradient>
<linearGradient id="paint81_linear_71_137" x1="30.8493" y1="178.535" x2="118.951" y2="178.535" gradientUnits="userSpaceOnUse">
<stop stop-color="#FAAF3A"/>
<stop offset="1" stop-color="#8366F4"/>
</linearGradient>
<linearGradient id="paint82_linear_71_137" x1="30.8493" y1="178.535" x2="118.951" y2="178.535" gradientUnits="userSpaceOnUse">
<stop stop-color="#FAAF3A"/>
<stop offset="1" stop-color="#8366F4"/>
</linearGradient>
<linearGradient id="paint83_linear_71_137" x1="30.8493" y1="178.535" x2="118.951" y2="178.535" gradientUnits="userSpaceOnUse">
<stop stop-color="#FAAF3A"/>
<stop offset="1" stop-color="#8366F4"/>
</linearGradient>
<linearGradient id="paint84_linear_71_137" x1="30.8493" y1="178.535" x2="118.951" y2="178.535" gradientUnits="userSpaceOnUse">
<stop stop-color="#FAAF3A"/>
<stop offset="1" stop-color="#8366F4"/>
</linearGradient>
<linearGradient id="paint85_linear_71_137" x1="30.8493" y1="178.535" x2="118.951" y2="178.535" gradientUnits="userSpaceOnUse">
<stop stop-color="#FAAF3A"/>
<stop offset="1" stop-color="#8366F4"/>
</linearGradient>
<linearGradient id="paint86_linear_71_137" x1="30.8494" y1="178.535" x2="118.951" y2="178.535" gradientUnits="userSpaceOnUse">
<stop stop-color="#FAAF3A"/>
<stop offset="1" stop-color="#8366F4"/>
</linearGradient>
<linearGradient id="paint87_linear_71_137" x1="30.8493" y1="178.535" x2="118.951" y2="178.535" gradientUnits="userSpaceOnUse">
<stop stop-color="#FAAF3A"/>
<stop offset="1" stop-color="#8366F4"/>
</linearGradient>
<linearGradient id="paint88_linear_71_137" x1="30.8493" y1="178.535" x2="118.951" y2="178.535" gradientUnits="userSpaceOnUse">
<stop stop-color="#FAAF3A"/>
<stop offset="1" stop-color="#8366F4"/>
</linearGradient>
<linearGradient id="paint89_linear_71_137" x1="30.8493" y1="178.535" x2="118.951" y2="178.535" gradientUnits="userSpaceOnUse">
<stop stop-color="#FAAF3A"/>
<stop offset="1" stop-color="#8366F4"/>
</linearGradient>
<linearGradient id="paint90_linear_71_137" x1="30.8493" y1="178.535" x2="118.951" y2="178.535" gradientUnits="userSpaceOnUse">
<stop stop-color="#FAAF3A"/>
<stop offset="1" stop-color="#8366F4"/>
</linearGradient>
<linearGradient id="paint91_linear_71_137" x1="30.8494" y1="178.535" x2="118.951" y2="178.535" gradientUnits="userSpaceOnUse">
<stop stop-color="#FAAF3A"/>
<stop offset="1" stop-color="#8366F4"/>
</linearGradient>
<linearGradient id="paint92_linear_71_137" x1="30.8493" y1="178.535" x2="118.951" y2="178.535" gradientUnits="userSpaceOnUse">
<stop stop-color="#FAAF3A"/>
<stop offset="1" stop-color="#8366F4"/>
</linearGradient>
<linearGradient id="paint93_linear_71_137" x1="30.8494" y1="178.535" x2="118.951" y2="178.535" gradientUnits="userSpaceOnUse">
<stop stop-color="#FAAF3A"/>
<stop offset="1" stop-color="#8366F4"/>
</linearGradient>
<linearGradient id="paint94_linear_71_137" x1="30.8494" y1="178.535" x2="118.951" y2="178.535" gradientUnits="userSpaceOnUse">
<stop stop-color="#FAAF3A"/>
<stop offset="1" stop-color="#8366F4"/>
</linearGradient>
<linearGradient id="paint95_linear_71_137" x1="30.8493" y1="178.535" x2="118.951" y2="178.535" gradientUnits="userSpaceOnUse">
<stop stop-color="#FAAF3A"/>
<stop offset="1" stop-color="#8366F4"/>
</linearGradient>
<linearGradient id="paint96_linear_71_137" x1="30.8493" y1="178.535" x2="118.951" y2="178.535" gradientUnits="userSpaceOnUse">
<stop stop-color="#FAAF3A"/>
<stop offset="1" stop-color="#8366F4"/>
</linearGradient>
<linearGradient id="paint97_linear_71_137" x1="30.8494" y1="178.535" x2="118.951" y2="178.535" gradientUnits="userSpaceOnUse">
<stop stop-color="#FAAF3A"/>
<stop offset="1" stop-color="#8366F4"/>
</linearGradient>
<linearGradient id="paint98_linear_71_137" x1="30.8494" y1="178.535" x2="118.951" y2="178.535" gradientUnits="userSpaceOnUse">
<stop stop-color="#FAAF3A"/>
<stop offset="1" stop-color="#8366F4"/>
</linearGradient>
<linearGradient id="paint99_linear_71_137" x1="30.8493" y1="178.535" x2="118.951" y2="178.535" gradientUnits="userSpaceOnUse">
<stop stop-color="#FAAF3A"/>
<stop offset="1" stop-color="#8366F4"/>
</linearGradient>
</defs>
</svg>
