<svg width="27" height="27" viewBox="0 0 27 27" fill="none" xmlns="http://www.w3.org/2000/svg">
<path d="M13.5664 0.148438C6.22776 0.148438 0.277344 6.09885 0.277344 13.4375C0.277344 20.7761 6.22776 26.7266 13.5664 26.7266C20.9051 26.7266 26.8555 20.7761 26.8555 13.4375C26.8555 6.09885 20.9051 0.148438 13.5664 0.148438ZM13.5664 24.4722C7.47361 24.4722 2.53174 19.5303 2.53174 13.4375C2.53174 7.3447 7.47361 2.40283 13.5664 2.40283C19.6592 2.40283 24.6011 7.3447 24.6011 13.4375C24.6011 19.5303 19.6592 24.4722 13.5664 24.4722Z" fill="white" fill-opacity="0.5"/>
<path d="M11.8118 7.99292C11.8118 8.36005 11.9576 8.71215 12.2172 8.97175C12.4768 9.23135 12.8289 9.3772 13.196 9.3772C13.5632 9.3772 13.9153 9.23135 14.1749 8.97175C14.4345 8.71215 14.5803 8.36005 14.5803 7.99292C14.5803 7.62579 14.4345 7.27369 14.1749 7.01409C13.9153 6.75449 13.5632 6.60864 13.196 6.60864C12.8289 6.60864 12.4768 6.75449 12.2172 7.01409C11.9576 7.27369 11.8118 7.62579 11.8118 7.99292ZM13.8882 11.2229H12.5039C12.377 11.2229 12.2732 11.3267 12.2732 11.4536V19.2979C12.2732 19.4247 12.377 19.5286 12.5039 19.5286H13.8882C14.0151 19.5286 14.1189 19.4247 14.1189 19.2979V11.4536C14.1189 11.3267 14.0151 11.2229 13.8882 11.2229Z" fill="white" fill-opacity="0.5"/>
</svg>
