<svg width="29" height="27" viewBox="0 0 29 27" fill="none" xmlns="http://www.w3.org/2000/svg">
<path d="M28.5934 8.18368C28.5934 9.54214 28.3616 10.8553 27.8979 12.1232C27.4333 13.3911 26.7822 14.5684 25.9445 15.6552C25.6954 15.9721 25.3671 16.1646 24.9596 16.2325C24.552 16.3004 24.2124 16.1986 23.9407 15.9269C23.6917 15.6778 23.5613 15.3663 23.5495 14.9922C23.5386 14.6191 23.6577 14.2741 23.9068 13.9571C24.5407 13.1194 25.0275 12.2079 25.3671 11.2225C25.7067 10.2381 25.8765 9.22516 25.8765 8.18368C25.8765 7.1422 25.7067 6.13468 25.3671 5.16113C25.0275 4.18757 24.5407 3.28193 23.9068 2.44422C23.6577 2.12725 23.5386 1.78175 23.5495 1.40772C23.5613 1.0346 23.6917 0.723516 23.9407 0.474466C24.2124 0.202775 24.552 0.100892 24.9596 0.168814C25.3671 0.236737 25.6954 0.429184 25.9445 0.746157C26.8048 1.83292 27.4614 3.00436 27.9142 4.26047C28.367 5.51749 28.5934 6.82523 28.5934 8.18368ZM23.1596 8.14972C23.1596 8.80631 23.0632 9.45157 22.8703 10.0855C22.6783 10.7195 22.4012 11.3081 22.0389 11.8515C21.8125 12.1685 21.5069 12.3496 21.122 12.3949C20.7371 12.4402 20.4088 12.327 20.1371 12.0553C19.888 11.8062 19.7522 11.4893 19.7295 11.1044C19.7069 10.7195 19.7861 10.3685 19.9673 10.0516C20.1258 9.75723 20.2448 9.45157 20.3245 9.1346C20.4033 8.81763 20.4427 8.48934 20.4427 8.14972C20.4427 7.83275 20.4033 7.51578 20.3245 7.19881C20.2448 6.88183 20.1258 6.57618 19.9673 6.28185C19.7861 5.96488 19.7069 5.61395 19.7295 5.22905C19.7522 4.84416 19.888 4.52718 20.1371 4.27813C20.4088 4.00644 20.7371 3.89324 21.122 3.93852C21.5069 3.9838 21.8125 4.16493 22.0389 4.4819C22.3785 5.04792 22.6502 5.63659 22.854 6.24789C23.0578 6.85919 23.1596 7.49314 23.1596 8.14972ZM10.8996 15.8589C9.4053 15.8589 8.12609 15.3269 7.06197 14.2628C5.99785 13.1986 5.46579 11.9194 5.46579 10.4251C5.46579 8.93083 5.99785 7.65162 7.06197 6.5875C8.12609 5.52338 9.4053 4.99132 10.8996 4.99132C12.3939 4.99132 13.6731 5.52338 14.7372 6.5875C15.8014 7.65162 16.3334 8.93083 16.3334 10.4251C16.3334 11.9194 15.8014 13.1986 14.7372 14.2628C13.6731 15.3269 12.3939 15.8589 10.8996 15.8589ZM2.74889 26.7266C2.00174 26.7266 1.36236 26.4608 0.830753 25.9291C0.298239 25.3966 0.0319824 24.7568 0.0319824 24.0097V22.9229C0.0319824 22.1757 0.22443 21.4739 0.609325 20.8173C0.994219 20.1607 1.52628 19.6626 2.20551 19.323C3.36019 18.7343 4.66204 18.2362 6.11106 17.8287C7.56007 17.4212 9.15625 17.2174 10.8996 17.2174C12.6429 17.2174 14.2391 17.4212 15.6881 17.8287C17.1372 18.2362 18.439 18.7343 19.5937 19.323C20.2729 19.6626 20.805 20.1607 21.1899 20.8173C21.5748 21.4739 21.7672 22.1757 21.7672 22.9229V24.0097C21.7672 24.7568 21.5014 25.3966 20.9698 25.9291C20.4373 26.4608 19.7975 26.7266 19.0503 26.7266H2.74889ZM2.74889 24.0097H19.0503V22.9229C19.0503 22.6738 18.9883 22.4474 18.8642 22.2437C18.7392 22.0399 18.5749 21.8814 18.3711 21.7682C17.556 21.3607 16.5091 20.9531 15.2303 20.5456C13.9507 20.1381 12.5071 19.9343 10.8996 19.9343C9.2921 19.9343 7.84852 20.1381 6.56886 20.5456C5.2901 20.9531 4.24319 21.3607 3.42811 21.7682C3.22435 21.8814 3.06043 22.0399 2.93635 22.2437C2.81138 22.4474 2.74889 22.6738 2.74889 22.9229V24.0097ZM10.8996 13.142C11.6468 13.142 12.2866 12.8758 12.8191 12.3433C13.3507 11.8117 13.6165 11.1723 13.6165 10.4251C13.6165 9.67798 13.3507 9.03815 12.8191 8.50564C12.2866 7.97403 11.6468 7.70823 10.8996 7.70823C10.1525 7.70823 9.51307 7.97403 8.98147 8.50564C8.44895 9.03815 8.1827 9.67798 8.1827 10.4251C8.1827 11.1723 8.44895 11.8117 8.98147 12.3433C9.51307 12.8758 10.1525 13.142 10.8996 13.142Z" fill="white" fill-opacity="0.5"/>
</svg>
