<svg width="29" height="27" viewBox="0 0 29 27" fill="none" xmlns="http://www.w3.org/2000/svg">
<path d="M14.1648 5.66439C16.2798 5.66439 18.2727 6.60198 19.7332 8.06766V8.07199C19.7332 7.36815 20.2067 6.83573 20.8612 6.83573H21.0274C22.0603 6.83573 22.2672 7.80967 22.2672 8.11701L22.2715 19.0555C22.1996 19.7724 23.0117 20.1429 23.4627 19.6823C25.2158 17.879 27.317 10.4025 22.3711 6.07388C17.7584 2.03351 11.5676 2.70099 8.27606 4.96921C4.77764 7.38633 2.54145 12.7253 4.71358 17.7431C7.08568 23.2136 13.867 24.8456 17.903 23.218C19.9461 22.3929 20.8881 25.1512 18.7644 26.0541C15.5638 27.4194 6.64416 27.28 2.47826 20.0658C-0.33624 15.1926 -0.187335 6.62016 7.28047 2.17895C12.9882 -1.22078 20.5192 -0.278862 25.0592 4.46102C29.8034 9.4208 29.5289 18.7006 24.8973 22.3081C22.7996 23.9487 19.6847 22.3531 19.7072 19.9628L19.6838 19.1837C18.2233 20.6303 16.2798 21.4787 14.1648 21.4787C9.98069 21.4787 6.297 17.7942 6.297 13.6144C6.297 9.38964 9.98069 5.66612 14.1648 5.66612V5.66439ZM19.4276 13.3123C19.2691 10.2502 16.9966 8.40616 14.2505 8.40616H14.1466C10.9815 8.40616 9.22318 10.8995 9.22318 13.7261C9.22318 16.8955 11.3468 18.8971 14.1336 18.8971C17.2442 18.8971 19.2864 16.6211 19.4354 13.9287L19.4276 13.3123Z" fill="white" fill-opacity="0.5"/>
</svg>
