<svg width="208" height="143" viewBox="0 0 208 143" fill="none" xmlns="http://www.w3.org/2000/svg">
<path d="M76.1663 123.772V78.6813C80.221 77.9823 82.2483 75.5355 82.2483 71.341C82.2483 67.1465 80.221 64.6298 76.1663 63.7909V18.7001C81.4793 18.001 84.1359 14.9251 84.1359 9.47224C84.1359 6.81573 83.227 4.57867 81.4094 2.76105C79.5918 0.943448 77.3548 0.0346453 74.6983 0.0346453C72.1816 0.0346453 69.9445 0.943448 67.9871 2.76105C66.1694 4.57867 65.2606 6.81573 65.2606 9.47224C65.2606 14.9251 67.9871 18.001 73.4399 18.7001V63.7909C69.9445 64.49 67.9172 66.5173 67.3579 69.8729H18.9115C18.0726 64.5599 14.9268 61.9034 9.47392 61.9034C6.8174 61.9034 4.58034 62.8122 2.76273 64.6298C0.945117 66.4474 0.0363105 68.6845 0.0363105 71.341C0.0363105 76.7938 2.76273 79.8698 8.21557 80.5689V123.772C2.76273 124.471 0.0363105 127.547 0.0363105 133C0.0363105 135.657 0.945117 137.894 2.76273 139.711C4.58034 141.529 6.8174 142.438 9.47392 142.438C14.9268 142.438 18.0726 139.781 18.9115 134.468H65.4704C66.1695 139.781 69.2454 142.438 74.6983 142.438C77.3548 142.438 79.5918 141.529 81.4094 139.711C83.227 137.894 84.1359 135.657 84.1359 133C84.1359 127.547 81.4793 124.471 76.1663 123.772ZM10.7323 123.772V80.5689C15.486 79.8698 18.2124 77.2133 18.9115 72.5993H67.3579C67.9172 76.0947 69.9445 78.1221 73.4399 78.6813V123.772C68.826 124.471 66.1695 127.128 65.4704 131.742H18.9115C18.2124 127.128 15.486 124.471 10.7323 123.772ZM198.906 123.772V80.5689C204.359 79.8698 207.085 76.7938 207.085 71.341C207.085 68.6845 206.176 66.4474 204.359 64.6298C202.541 62.8122 200.304 61.9034 197.648 61.9034C192.195 61.9034 189.049 64.5599 188.21 69.8729H139.764C139.204 66.5173 137.177 64.49 133.682 63.7909V18.7001C139.134 18.001 141.861 14.9251 141.861 9.47224C141.861 6.81573 140.882 4.57867 138.925 2.76105C137.107 0.943448 134.94 0.0346453 132.423 0.0346453C129.767 0.0346453 127.53 0.943448 125.712 2.76105C123.894 4.57867 122.986 6.81573 122.986 9.47224C122.986 14.9251 125.642 18.001 130.955 18.7001V63.7909C126.901 64.6298 124.873 67.1465 124.873 71.341C124.873 75.5355 126.901 77.9823 130.955 78.6813V123.772C125.642 124.471 122.986 127.547 122.986 133C122.986 135.657 123.894 137.894 125.712 139.711C127.53 141.529 129.767 142.438 132.423 142.438C134.94 142.438 137.107 141.529 138.925 139.711C140.882 137.894 141.861 135.657 141.861 133C141.861 127.547 139.134 124.471 133.682 123.772V78.6813C137.177 78.1221 139.204 76.0947 139.764 72.5993H188.21C188.909 77.2133 191.566 79.8698 196.18 80.5689V123.772C190.867 124.471 188.21 127.547 188.21 133C188.21 135.657 189.119 137.894 190.936 139.711C192.754 141.529 194.991 142.438 197.648 142.438C200.304 142.438 202.541 141.529 204.359 139.711C206.176 137.894 207.085 135.657 207.085 133C207.085 127.547 204.359 124.471 198.906 123.772Z" fill="white"/>
</svg>
