<svg width="28" height="27" viewBox="0 0 28 27" fill="none" xmlns="http://www.w3.org/2000/svg">
<path d="M14.7369 0.541412C14.6134 0.416892 14.4665 0.318057 14.3046 0.25061C14.1427 0.183163 13.969 0.148438 13.7936 0.148438C13.6183 0.148437 13.4446 0.183163 13.2827 0.25061C13.1208 0.318057 12.9739 0.416892 12.8504 0.541412L0.893707 12.4981C0.769186 12.6216 0.670352 12.7685 0.602905 12.9304C0.535458 13.0923 0.500732 13.266 0.500732 13.4414C0.500732 13.6167 0.535458 13.7904 0.602905 13.9523C0.670352 14.1142 0.769186 14.2611 0.893707 14.3846C1.01784 14.5077 1.16506 14.6051 1.32693 14.6713C1.48879 14.7374 1.66211 14.7709 1.83696 14.7699H3.16548V24.0695C3.16548 24.7742 3.44542 25.45 3.94371 25.9483C4.442 26.4466 5.11783 26.7266 5.82252 26.7266H21.7648C22.4695 26.7266 23.1453 26.4466 23.6436 25.9483C24.1419 25.45 24.4218 24.7742 24.4218 24.0695V14.7699H25.7503C26.1027 14.7699 26.4406 14.6299 26.6897 14.3808C26.9389 14.1316 27.0789 13.7937 27.0789 13.4414C27.0799 13.2665 27.0464 13.0932 26.9802 12.9313C26.9141 12.7695 26.8167 12.6222 26.6936 12.4981L14.7369 0.541412ZM5.82252 24.0695V11.329L13.7936 3.35788L21.7648 11.329V24.0695H5.82252Z" fill="white" fill-opacity="0.5"/>
</svg>
