{
  "accessors": [
    {
      "bufferView": 1,
      "componentType": 5126,
      "count": 124,
      "max": [
        300.0,
        180.0,
        48.817710876464844
      ],
      "min": [
        0.0,
        0.0,
        0.0
      ],
      "type": "VEC3"
    },
    {
      "bufferView": 1,
      "byteOffset": 1488,
      "componentType": 5126,
      "count": 124,
      "max": [
        1.0,
        1.0,
        1.0
      ],
      "min": [
        -1.0,
        -1.0,
        -0.6401844024658203
      ],
      "type": "VEC3"
    },
    {
      "bufferView": 0,
      "componentType": 5125,
      "count": 396,
      "type": "SCALAR"
    },
    {
      "bufferView": 1,
      "byteOffset": 2976,
      "componentType": 5126,
      "count": 816,
      "max": [
        299.0,
        179.0,
        152.0
      ],
      "min": [
        0.999969482421875,
        1.0000076293945313,
        37.99394607543945
      ],
      "type": "VEC3"
    },
    {
      "bufferView": 1,
      "byteOffset": 12768,
      "componentType": 5126,
      "count": 816,
      "max": [
        0.9246916174888611,
        1.0,
        0.8932073712348938
      ],
      "min": [
        -0.9238829612731934,
        -1.0,
        -0.8924027681350708
      ],
      "type": "VEC3"
    },
    {
      "bufferView": 0,
      "byteOffset": 1584,
      "componentType": 5125,
      "count": 2976,
      "type": "SCALAR"
    },
    {
      "bufferView": 1,
      "byteOffset": 22560,
      "componentType": 5126,
      "count": 33,
      "max": [
        300.0,
        180.0,
        160.0
      ],
      "min": [
        0.0,
        0.0,
        38.0
      ],
      "type": "VEC3"
    },
    {
      "bufferView": 1,
      "byteOffset": 22956,
      "componentType": 5126,
      "count": 33,
      "max": [
        0.08853979408740997,
        1.0,
        0.9999709725379944
      ],
      "min": [
        -0.08853979408740997,
        -1.0,
        -1.0
      ],
      "type": "VEC3"
    },
    {
      "bufferView": 0,
      "byteOffset": 13488,
      "componentType": 5125,
      "count": 108,
      "type": "SCALAR"
    }
  ],
  "asset": {
    "extras": {
      "author": "Mareon (https://sketchfab.com/mareoncz)",
      "license": "CC-BY-4.0 (http://creativecommons.org/licenses/by/4.0/)",
      "source": "https://sketchfab.com/3d-models/festival-stage-lowpoly-080542b9b54c4f3aa6c389dab6b00b3e",
      "title": "Festival Stage [LowPoly]"
    },
    "generator": "Sketchfab-13.37.1",
    "version": "2.0"
  },
  "bufferViews": [
    {
      "buffer": 0,
      "byteLength": 13920,
      "name": "floatBufferViews",
      "target": 34963
    },
    {
      "buffer": 0,
      "byteLength": 23352,
      "byteOffset": 13920,
      "byteStride": 12,
      "name": "floatBufferViews",
      "target": 34962
    }
  ],
  "buffers": [
    {
      "byteLength": 37272,
      "uri": "scene.bin"
    }
  ],
  "extensionsRequired": [
    "KHR_materials_pbrSpecularGlossiness"
  ],
  "extensionsUsed": [
    "KHR_materials_pbrSpecularGlossiness"
  ],
  "materials": [
    {
      "doubleSided": true,
      "extensions": {
        "KHR_materials_pbrSpecularGlossiness": {
          "diffuseFactor": [
            0.05624659105121177,
            0.014933208874336489,
            0.014933208874336489,
            1.0
          ],
          "glossinessFactor": 0.25,
          "specularFactor": [
            0.05,
            0.05,
            0.05
          ]
        }
      },
      "name": "podium"
    },
    {
      "doubleSided": true,
      "extensions": {
        "KHR_materials_pbrSpecularGlossiness": {
          "diffuseFactor": [
            0.730128154210186,
            0.730128154210186,
            0.730128154210186,
            1.0
          ],
          "glossinessFactor": 0.9,
          "specularFactor": [
            0.5,
            0.5,
            0.5
          ]
        }
      },
      "name": "sloupy"
    },
    {
      "doubleSided": true,
      "extensions": {
        "KHR_materials_pbrSpecularGlossiness": {
          "diffuseFactor": [
            0.3982293687491821,
            0.0,
            1.0,
            1.0
          ],
          "glossinessFactor": 0.15,
          "specularFactor": [
            0.05,
            0.05,
            0.05
          ]
        }
      },
      "name": "stan"
    }
  ],
  "meshes": [
    {
      "name": "Object_0",
      "primitives": [
        {
          "attributes": {
            "NORMAL": 1,
            "POSITION": 0
          },
          "indices": 2,
          "material": 0,
          "mode": 4
        }
      ]
    },
    {
      "name": "Object_1",
      "primitives": [
        {
          "attributes": {
            "NORMAL": 4,
            "POSITION": 3
          },
          "indices": 5,
          "material": 1,
          "mode": 4
        }
      ]
    },
    {
      "name": "Object_2",
      "primitives": [
        {
          "attributes": {
            "NORMAL": 7,
            "POSITION": 6
          },
          "indices": 8,
          "material": 2,
          "mode": 4
        }
      ]
    }
  ],
  "nodes": [
    {
      "children": [
        1
      ],
      "matrix": [
        1.0,
        0.0,
        0.0,
        0.0,
        0.0,
        2.220446049250313e-16,
        -1.0,
        0.0,
        0.0,
        1.0,
        2.220446049250313e-16,
        0.0,
        0.0,
        0.0,
        0.0,
        1.0
      ],
      "name": "Sketchfab_model"
    },
    {
      "children": [
        2
      ],
      "matrix": [
        1.0,
        0.0,
        0.0,
        0.0,
        0.0,
        1.0,
        0.0,
        0.0,
        0.0,
        0.0,
        1.0,
        0.0,
        -150.0,
        -90.0,
        0.0,
        1.0
      ],
      "name": "Stage.obj.cleaner.materialmerger.gles"
    },
    {
      "children": [
        3,
        4,
        5
      ],
      "name": "Object_2"
    },
    {
      "mesh": 0,
      "name": "Object_3"
    },
    {
      "mesh": 1,
      "name": "Object_4"
    },
    {
      "mesh": 2,
      "name": "Object_5"
    }
  ],
  "scene": 0,
  "scenes": [
    {
      "name": "Sketchfab_Scene",
      "nodes": [
        0
      ]
    }
  ]
}
