<svg width="35" height="34" viewBox="0 0 35 34" fill="none" xmlns="http://www.w3.org/2000/svg">
<path d="M17.4797 22.1051C20.3471 22.1051 22.6717 19.7806 22.6717 16.9131C22.6717 14.0456 20.3471 11.721 17.4797 11.721C14.6122 11.721 12.2876 14.0456 12.2876 16.9131C12.2876 19.7806 14.6122 22.1051 17.4797 22.1051Z" stroke="#FA41FE" stroke-width="2.07682" stroke-miterlimit="10"/>
<path d="M23.192 4.97134H11.7695C8.32854 4.97134 5.53906 7.76082 5.53906 11.2018V22.6243C5.53906 26.0653 8.32854 28.8548 11.7695 28.8548H23.192C26.633 28.8548 29.4225 26.0653 29.4225 22.6243V11.2018C29.4225 7.76082 26.633 4.97134 23.192 4.97134Z" stroke="#FA41FE" stroke-width="2.07682" stroke-linecap="round" stroke-linejoin="round"/>
<path d="M24.2302 11.7208C25.0905 11.7208 25.7878 11.0235 25.7878 10.1632C25.7878 9.30296 25.0905 8.60559 24.2302 8.60559C23.37 8.60559 22.6726 9.30296 22.6726 10.1632C22.6726 11.0235 23.37 11.7208 24.2302 11.7208Z" fill="#FA41FE"/>
</svg>
