<svg width="34" height="34" viewBox="0 0 34 34" fill="none" xmlns="http://www.w3.org/2000/svg">
<path d="M16.6371 11.721C16.6371 8.86534 19.0384 6.48997 21.894 6.52891C22.8941 6.54046 23.8695 6.84059 24.7031 7.39323C25.5366 7.94587 26.1928 8.72749 26.5928 9.64415H31.1748L26.9822 13.8367C26.7117 18.0482 24.8474 21.9986 21.7684 24.8847C18.6893 27.7708 14.6268 29.376 10.4066 29.3739C6.25295 29.3739 5.21454 27.8163 5.21454 27.8163C5.21454 27.8163 9.36819 26.2587 11.445 23.1435C11.445 23.1435 3.13772 18.9898 5.21454 7.56733C5.21454 7.56733 10.4066 12.7594 16.6371 13.7978V11.721Z" stroke="#2871FF" stroke-width="2.07682" stroke-linecap="round" stroke-linejoin="round"/>
</svg>
