<svg width="35" height="34" viewBox="0 0 35 34" fill="none" xmlns="http://www.w3.org/2000/svg">
<path d="M22.2401 26.2586H16.5913C16.3406 26.2587 16.0983 26.3462 15.9086 26.5053L9.77795 31.4507V26.2586H6.56537C6.28136 26.2586 6.00898 26.1492 5.80815 25.9545C5.60733 25.7597 5.49451 25.4956 5.49451 25.2202V6.52883C5.49451 6.25342 5.60733 5.9893 5.80815 5.79456C6.00898 5.59982 6.28136 5.49042 6.56537 5.49042H27.9826C28.2666 5.49042 28.539 5.59982 28.7398 5.79456C28.9406 5.9893 29.0534 6.25342 29.0534 6.52883V20.5863C29.0513 20.7376 29.0155 20.8867 28.9485 21.0233C28.8815 21.16 28.7849 21.281 28.6653 21.3781L22.9228 26.012C22.7331 26.171 22.4908 26.2586 22.2401 26.2586V26.2586Z" stroke="#9A35FF" stroke-width="2.07682" stroke-linecap="round" stroke-linejoin="round"/>
<path d="M22.6284 11.721V17.9515" stroke="#9A35FF" stroke-width="2.07682" stroke-linecap="round" stroke-linejoin="round"/>
<path d="M16.2032 11.721V17.9515" stroke="#9A35FF" stroke-width="2.07682" stroke-linecap="round" stroke-linejoin="round"/>
</svg>
