<svg width="34" height="34" viewBox="0 0 34 34" fill="none" xmlns="http://www.w3.org/2000/svg">
<path d="M21.4768 16.9129L15.2463 12.7592V21.0665L21.4768 16.9129Z" stroke="#F40000" stroke-width="2.07682" stroke-linecap="round" stroke-linejoin="round"/>
<path d="M3.82446 16.9131C3.82446 20.7812 4.22685 23.0397 4.52539 24.2079C4.60771 24.5249 4.76337 24.8181 4.97982 25.0639C5.19627 25.3096 5.46745 25.5011 5.77148 25.6228C10.1198 27.2842 17.3238 27.2453 17.3238 27.2453C17.3238 27.2453 24.5278 27.2842 28.8761 25.6228C29.1802 25.5011 29.4513 25.3096 29.6678 25.0639C29.8842 24.8181 30.0399 24.5249 30.1222 24.2079C30.4208 23.0397 30.8231 20.7812 30.8231 16.9131C30.8231 13.045 30.4208 10.7865 30.1222 9.61827C30.0399 9.3013 29.8842 9.00811 29.6678 8.76235C29.4513 8.51659 29.1802 8.32514 28.8761 8.20344C24.5278 6.54198 17.3238 6.58092 17.3238 6.58092C17.3238 6.58092 10.1198 6.54198 5.77148 8.20344C5.46745 8.32514 5.19627 8.51659 4.97982 8.76235C4.76337 9.00811 4.60771 9.3013 4.52539 9.61827C4.22685 10.7865 3.82446 13.045 3.82446 16.9131Z" stroke="#F40000" stroke-width="2.07682" stroke-linecap="round" stroke-linejoin="round"/>
</svg>
